<svg id="svg" version="1.1" xmlns="http://www.w3.org/2000/svg" xmlns:xlink="http://www.w3.org/1999/xlink" width="400" height="250" viewBox="0, 0, 400,250"><g id="svgg"><path id="path0" d="M0.000 125.000 L 0.000 250.000 103.021 250.000 C 205.903 250.000,206.042 249.999,206.042 249.583 C 206.042 249.043,206.465 249.043,206.606 249.583 C 206.715 249.999,206.890 250.000,303.358 250.000 L 400.000 250.000 400.000 125.000 L 400.000 0.000 200.000 0.000 L 0.000 0.000 0.000 125.000 M153.359 11.472 C 154.892 12.292,154.734 14.596,153.088 15.436 C 150.921 16.541,148.788 14.435,149.898 12.287 C 150.491 11.141,152.053 10.773,153.359 11.472 M267.737 25.255 C 272.125 28.062,270.152 35.208,264.990 35.208 L 263.811 35.208 263.687 37.240 C 263.558 39.355,262.881 48.398,261.982 60.000 C 261.495 66.293,261.191 69.667,260.281 78.901 L 259.928 82.489 258.870 83.188 C 257.894 83.833,253.289 85.839,251.005 86.614 L 250.031 86.944 251.135 89.149 C 257.321 101.510,257.003 116.748,250.353 126.667 C 248.404 129.574,242.825 135.560,242.245 135.366 C 242.144 135.333,241.622 135.729,241.083 136.246 C 239.450 137.816,233.577 141.380,230.938 142.403 C 230.250 142.670,229.868 142.894,230.089 142.902 C 230.309 142.910,232.231 144.025,234.359 145.379 C 240.501 149.287,239.864 148.992,240.309 148.131 C 241.750 145.346,247.036 146.168,247.617 149.268 C 247.902 150.786,247.635 152.850,247.077 153.448 C 244.816 155.870,240.592 154.927,239.759 151.814 L 239.512 150.888 236.370 150.743 C 234.643 150.663,232.995 150.547,232.708 150.485 L 232.188 150.372 232.639 150.707 C 234.266 151.913,234.529 159.375,232.945 159.375 C 232.750 159.375,232.436 159.633,232.248 159.948 C 232.061 160.263,231.731 160.708,231.516 160.938 C 230.928 161.564,230.817 162.019,231.180 162.320 C 231.507 162.591,232.837 161.440,233.501 160.313 C 233.737 159.912,233.773 159.924,234.432 160.625 C 237.731 164.131,234.166 170.417,228.879 170.417 C 228.265 170.417,228.125 170.749,228.125 172.208 C 228.125 173.774,227.387 178.157,226.848 179.792 C 226.481 180.903,226.395 181.694,226.371 184.206 L 226.340 187.266 227.131 187.710 C 231.227 190.012,232.334 195.802,229.266 198.870 C 226.574 201.562,219.787 202.760,213.455 201.661 C 205.514 200.282,201.854 196.670,203.304 191.640 C 203.853 189.734,202.172 184.475,201.309 185.401 C 200.048 186.755,198.393 191.579,198.625 193.225 C 199.333 198.247,198.373 200.135,194.074 202.175 C 188.766 204.694,179.474 204.829,174.719 202.456 C 169.390 199.797,169.636 192.861,175.171 189.670 L 175.864 189.271 175.734 187.917 C 175.663 187.172,175.699 185.682,175.814 184.605 L 176.023 182.648 175.259 181.357 L 174.495 180.065 173.240 180.445 C 169.234 181.658,165.642 181.113,160.634 178.533 C 158.486 177.427,154.450 174.356,153.973 173.465 C 153.580 172.731,153.300 172.769,151.722 173.765 C 150.983 174.232,150.352 174.584,150.320 174.547 C 150.288 174.510,150.196 171.503,150.115 167.865 L 149.968 161.250 150.493 161.250 C 151.179 161.250,162.559 162.906,162.675 163.023 C 162.797 163.144,162.187 164.068,161.196 165.263 C 160.029 166.671,160.668 168.411,163.515 171.577 C 166.172 174.531,167.969 175.545,171.006 175.806 L 172.606 175.944 172.534 175.194 C 172.464 174.461,172.481 174.443,173.220 174.415 C 177.580 174.252,180.877 170.353,180.919 165.313 C 180.941 162.719,180.264 160.665,179.485 160.964 C 179.090 161.116,179.087 161.532,179.473 162.604 C 180.042 164.183,179.874 166.660,179.035 169.063 C 178.287 171.205,175.327 173.333,173.097 173.333 C 172.782 173.333,172.459 173.439,172.380 173.568 C 171.980 174.215,168.519 173.179,167.290 172.045 C 164.985 169.917,164.551 166.049,166.401 164.118 C 167.038 163.453,167.423 163.386,167.589 163.911 C 167.925 164.969,169.668 166.191,169.916 165.543 C 170.053 165.185,168.364 162.786,167.877 162.646 C 166.204 162.167,166.473 155.561,168.243 153.651 L 168.730 153.125 166.136 153.125 L 163.542 153.125 163.542 154.055 C 163.542 156.146,161.049 157.621,158.230 157.199 C 155.618 156.807,153.872 152.458,155.481 150.347 C 157.146 148.161,161.004 148.028,162.345 150.110 C 162.958 151.062,162.428 151.324,170.002 146.320 C 171.591 145.270,173.093 144.347,173.341 144.268 C 173.701 144.154,173.402 143.969,171.844 143.341 C 168.904 142.157,163.144 139.219,162.083 138.364 C 155.728 133.237,151.970 127.636,150.482 121.075 C 149.131 115.114,149.103 114.881,149.111 109.375 L 149.118 104.271 149.852 101.354 C 150.980 96.866,150.957 97.340,150.054 97.102 C 149.623 96.988,147.161 96.374,144.583 95.737 C 142.005 95.100,139.080 94.332,138.083 94.030 L 136.270 93.482 135.957 92.106 C 134.218 84.452,131.255 68.179,130.094 59.896 C 129.440 55.231,128.927 51.979,128.644 50.702 C 128.561 50.324,128.344 50.236,127.194 50.113 C 123.800 49.749,121.783 46.873,122.573 43.521 C 123.722 38.639,130.928 38.341,132.631 43.106 C 132.973 44.062,132.999 46.709,132.670 47.038 C 132.348 47.360,132.255 47.313,134.896 48.167 C 144.452 51.257,165.441 58.874,171.661 61.510 C 175.711 63.226,175.625 63.116,175.625 66.593 C 175.625 69.776,175.678 69.846,177.359 68.869 C 179.389 67.689,186.251 65.395,190.425 64.500 C 201.214 62.187,211.898 62.335,221.024 64.924 L 221.526 65.066 221.395 60.674 L 221.263 56.282 221.958 55.671 C 222.341 55.335,223.486 54.571,224.504 53.972 C 225.522 53.373,226.755 52.632,227.245 52.327 C 231.175 49.874,234.861 47.685,240.729 44.317 C 241.531 43.857,245.094 41.774,248.646 39.689 C 252.198 37.603,256.299 35.218,257.760 34.388 C 259.221 33.558,260.417 32.858,260.417 32.833 C 260.417 32.807,260.217 32.373,259.972 31.867 C 258.538 28.898,260.093 25.864,263.750 24.499 C 264.647 24.164,266.616 24.538,267.737 25.255 M300.441 31.067 C 302.779 32.697,300.284 36.228,297.729 34.906 C 296.479 34.260,296.129 32.939,296.880 31.707 C 297.635 30.468,299.183 30.190,300.441 31.067 M86.275 56.547 C 89.014 57.378,91.556 59.584,93.021 62.404 C 93.925 64.143,94.286 68.296,93.594 68.989 C 93.451 69.133,93.333 69.426,93.333 69.642 C 93.333 70.744,91.151 73.103,89.436 73.855 L 88.560 74.239 88.499 75.505 L 88.438 76.771 87.151 76.832 C 85.952 76.890,85.859 76.861,85.773 76.416 C 85.707 76.069,85.674 76.128,85.653 76.634 L 85.625 77.331 84.577 77.187 C 83.950 77.100,83.427 77.128,83.273 77.255 C 83.119 77.383,82.345 77.421,81.317 77.351 C 79.502 77.227,79.386 77.139,79.378 75.898 C 79.374 75.303,79.197 75.211,77.644 74.991 C 75.832 74.734,72.500 72.737,72.500 71.907 C 72.500 71.775,72.419 71.667,72.319 71.667 C 72.219 71.667,71.881 71.081,71.566 70.365 C 69.638 65.972,71.621 60.111,75.741 58.021 C 76.193 57.792,76.609 57.549,76.667 57.482 C 77.564 56.426,83.860 55.814,86.275 56.547 M328.194 70.781 C 328.365 71.555,328.615 72.867,328.750 73.698 C 329.033 75.438,328.964 75.407,330.674 74.569 C 332.310 73.768,334.009 73.107,334.128 73.225 C 334.202 73.299,333.218 74.561,331.108 77.098 C 330.878 77.375,330.950 77.657,331.564 78.903 C 332.667 81.144,332.584 81.225,330.529 79.910 L 329.391 79.182 329.276 79.956 C 329.033 81.595,328.286 84.583,328.120 84.583 C 327.899 84.583,327.815 84.289,327.376 81.979 C 327.181 80.948,326.985 80.063,326.942 80.012 C 326.899 79.961,326.327 80.438,325.672 81.072 C 323.246 83.417,322.303 83.770,323.250 81.979 C 325.012 78.647,324.920 77.675,322.617 75.221 C 320.530 73.000,320.071 72.096,321.468 72.961 C 321.864 73.206,322.703 73.683,323.333 74.023 C 323.964 74.362,324.703 74.814,324.976 75.028 C 325.919 75.766,326.320 75.177,326.766 72.396 C 326.954 71.231,327.545 69.375,327.730 69.375 C 327.814 69.375,328.023 70.008,328.194 70.781 M28.616 100.365 C 29.444 102.232,30.625 104.266,30.850 104.210 C 31.058 104.158,32.470 103.010,34.043 101.615 C 34.269 101.414,34.527 101.250,34.617 101.250 C 34.799 101.250,34.748 101.398,33.657 104.027 C 32.810 106.067,32.774 105.853,34.219 107.382 C 35.492 108.730,35.152 108.930,32.958 108.122 C 32.051 107.788,32.072 107.719,32.319 110.178 C 32.654 113.530,32.355 113.684,30.942 110.885 C 30.127 109.270,29.890 109.091,29.595 109.866 C 29.332 110.558,28.026 112.567,27.620 112.903 C 27.110 113.327,27.019 113.058,27.271 111.879 C 28.007 108.448,27.700 107.876,23.802 105.415 C 22.598 104.655,22.002 103.924,22.865 104.267 C 23.285 104.434,27.501 105.412,27.813 105.415 C 27.946 105.416,27.972 104.727,27.884 103.490 C 27.596 99.422,27.804 98.532,28.616 100.365 M296.107 109.704 C 299.919 110.863,302.447 112.903,303.924 116.014 C 304.885 118.037,305.030 121.735,304.208 123.226 C 303.956 123.683,303.750 124.269,303.750 124.528 C 303.750 124.809,303.623 125.000,303.438 125.000 C 303.266 125.000,303.125 125.087,303.125 125.193 C 303.125 125.538,301.381 127.055,300.556 127.427 L 299.752 127.790 299.892 129.095 C 300.049 130.565,300.167 130.459,298.073 130.731 C 297.386 130.820,297.083 130.955,297.083 131.173 C 297.083 131.716,296.179 131.422,296.038 130.833 C 295.915 130.316,295.913 130.315,295.789 130.781 C 295.651 131.300,294.701 131.455,294.513 130.990 C 294.455 130.846,294.400 130.925,294.391 131.164 C 294.364 131.896,290.625 131.887,290.625 131.154 C 290.625 129.854,290.367 129.647,288.609 129.538 C 280.901 129.062,277.876 118.600,283.876 113.166 C 285.304 111.873,285.570 111.667,285.807 111.667 C 285.917 111.667,286.038 111.596,286.076 111.510 C 286.224 111.177,288.752 110.000,289.319 110.000 C 289.648 110.000,290.006 109.911,290.115 109.803 C 290.295 109.622,291.278 109.525,294.023 109.415 C 294.575 109.393,295.512 109.523,296.107 109.704 M247.574 121.771 C 247.573 122.802,247.609 123.250,247.652 122.767 C 247.696 122.283,247.696 121.439,247.653 120.892 C 247.610 120.344,247.575 120.740,247.574 121.771 M118.606 124.729 C 118.796 125.623,119.101 127.151,119.284 128.124 C 119.467 129.098,119.650 129.928,119.690 129.968 C 119.730 130.008,121.106 129.436,122.746 128.697 C 125.904 127.274,126.265 127.244,125.220 128.493 C 124.862 128.921,124.455 129.407,124.316 129.574 C 121.466 132.982,121.649 132.417,122.708 134.533 C 123.968 137.050,123.792 137.232,121.547 135.726 C 120.776 135.209,120.116 134.815,120.081 134.850 C 120.045 134.885,119.884 135.754,119.722 136.780 C 119.438 138.574,118.840 141.021,118.634 141.227 C 118.393 141.468,118.157 140.777,117.719 138.542 C 117.460 137.224,117.214 136.026,117.171 135.880 C 117.124 135.723,116.645 136.065,115.994 136.720 C 114.488 138.235,112.083 140.021,112.083 139.625 C 112.083 139.424,113.447 136.139,113.777 135.547 C 114.693 133.901,114.260 132.641,111.875 130.014 C 111.016 129.068,110.137 128.017,109.922 127.680 C 109.515 127.039,109.589 126.657,110.047 127.034 C 110.622 127.507,115.905 130.415,116.005 130.314 C 116.064 130.255,116.230 129.668,116.373 129.010 C 117.874 122.120,118.000 121.879,118.606 124.729 M210.785 123.901 C 211.159 123.947,211.722 123.946,212.035 123.899 C 212.348 123.851,212.042 123.813,211.354 123.815 C 210.667 123.816,210.411 123.855,210.785 123.901 M375.351 125.222 C 378.381 126.366,377.048 130.508,373.904 129.719 C 371.799 129.190,371.906 125.563,374.039 125.143 C 374.281 125.096,374.543 125.044,374.622 125.028 C 374.700 125.013,375.028 125.100,375.351 125.222 M216.133 134.010 L 215.521 134.688 216.198 134.076 C 216.829 133.505,216.971 133.333,216.810 133.333 C 216.774 133.333,216.469 133.638,216.133 134.010 M210.365 135.980 C 210.622 136.030,211.044 136.030,211.302 135.980 C 211.560 135.931,211.349 135.890,210.833 135.890 C 210.318 135.890,210.107 135.931,210.365 135.980 M205.680 147.441 C 205.997 147.489,206.465 147.488,206.722 147.438 C 206.978 147.389,206.719 147.350,206.146 147.351 C 205.573 147.353,205.363 147.393,205.680 147.441 M197.031 147.651 C 197.404 147.697,198.013 147.697,198.385 147.651 C 198.758 147.604,198.453 147.567,197.708 147.567 C 196.964 147.567,196.659 147.604,197.031 147.651 M177.443 153.275 C 177.813 153.321,178.469 153.322,178.902 153.277 C 179.334 153.232,179.031 153.194,178.229 153.193 C 177.427 153.192,177.073 153.229,177.443 153.275 M224.413 156.799 C 224.274 157.048,224.473 157.611,225.149 158.883 C 225.659 159.841,226.015 160.625,225.940 160.625 C 225.866 160.625,225.993 160.890,226.224 161.213 C 226.454 161.537,226.707 162.310,226.787 162.932 C 226.866 163.554,227.014 164.224,227.116 164.422 C 227.217 164.619,227.392 165.739,227.503 166.911 C 227.759 169.597,227.834 169.833,228.403 169.752 C 228.821 169.692,228.854 169.572,228.845 168.125 C 228.816 163.037,225.568 154.736,224.413 156.799 M222.347 167.858 C 222.663 167.906,223.132 167.904,223.388 167.855 C 223.645 167.806,223.385 167.766,222.813 167.768 C 222.240 167.769,222.030 167.810,222.347 167.858 M312.439 171.974 C 314.237 172.490,314.403 175.112,312.700 176.118 C 310.158 177.619,307.586 174.006,309.985 172.303 C 310.831 171.704,311.285 171.643,312.439 171.974 M90.208 175.627 C 92.292 176.442,93.856 177.260,94.364 177.800 C 94.639 178.094,94.965 178.336,95.088 178.338 C 95.212 178.341,95.727 178.974,96.233 179.745 C 96.740 180.515,97.328 181.403,97.540 181.717 C 97.753 182.031,97.984 182.593,98.055 182.967 C 98.126 183.340,98.258 183.742,98.349 183.859 C 99.899 185.859,97.957 193.519,95.638 194.551 C 95.344 194.681,94.729 195.051,94.271 195.372 C 93.108 196.186,92.174 196.458,90.547 196.458 L 89.144 196.458 88.637 197.604 C 88.092 198.837,87.702 199.019,86.816 198.458 C 86.562 198.297,85.956 198.101,85.470 198.023 C 84.983 197.944,84.533 197.795,84.468 197.690 C 84.403 197.586,84.162 197.500,83.931 197.500 C 83.701 197.500,83.371 197.359,83.199 197.188 C 83.028 197.016,82.656 196.875,82.374 196.875 C 82.093 196.875,81.808 196.734,81.742 196.563 C 81.676 196.391,81.412 196.250,81.156 196.250 C 80.644 196.250,79.456 195.716,79.260 195.399 C 79.192 195.288,79.296 194.780,79.491 194.269 C 79.850 193.329,79.474 192.544,78.646 192.504 C 78.339 192.489,76.810 191.053,76.162 190.172 C 74.789 188.303,74.080 184.179,74.896 182.813 C 75.033 182.583,75.263 182.035,75.408 181.594 C 76.328 178.788,78.671 176.570,81.690 175.648 C 82.536 175.389,83.323 175.138,83.438 175.091 C 84.115 174.809,89.134 175.206,90.208 175.627 M43.090 211.043 C 44.576 211.047,45.322 213.567,44.206 214.815 C 42.776 216.416,40.000 215.497,40.000 213.423 C 40.000 212.024,41.361 210.669,42.465 210.967 C 42.618 211.008,42.899 211.042,43.090 211.043 M160.865 218.368 C 162.328 218.806,162.932 220.475,162.067 221.690 C 160.241 224.254,156.423 222.158,157.893 219.398 C 158.479 218.300,159.480 217.953,160.865 218.368 M302.813 220.025 C 305.308 220.717,307.833 222.390,309.376 224.376 C 309.777 224.891,310.162 225.359,310.232 225.417 C 310.303 225.474,310.426 225.731,310.506 225.988 C 310.587 226.245,310.798 226.601,310.975 226.779 C 311.408 227.212,311.728 230.103,311.563 232.083 C 311.337 234.775,309.679 237.372,307.438 238.542 L 306.440 239.063 306.573 240.319 C 306.723 241.742,306.556 241.927,304.896 242.181 C 304.438 242.251,303.799 242.412,303.478 242.539 C 303.071 242.699,302.827 242.702,302.676 242.551 C 302.540 242.415,302.230 242.398,301.854 242.506 C 301.522 242.601,301.250 242.632,301.250 242.575 C 301.250 242.517,301.103 242.618,300.923 242.798 C 300.545 243.175,300.085 243.223,299.889 242.905 C 299.799 242.759,299.588 242.794,299.260 243.009 C 298.922 243.230,298.489 243.297,297.883 243.221 C 296.815 243.086,296.885 243.151,296.733 242.161 C 296.565 241.072,296.307 240.788,295.618 240.939 C 294.897 241.097,292.403 240.524,291.501 239.992 C 291.121 239.767,290.688 239.583,290.539 239.583 C 290.299 239.583,288.776 238.065,287.912 236.966 C 285.178 233.485,286.693 224.969,290.391 223.030 C 290.692 222.873,291.143 222.550,291.394 222.313 C 291.947 221.791,294.334 220.615,295.625 220.230 C 296.141 220.075,296.656 219.921,296.771 219.887 C 297.343 219.715,302.087 219.824,302.813 220.025 M299.428 240.521 C 299.430 240.979,299.473 241.142,299.522 240.883 C 299.572 240.624,299.570 240.249,299.518 240.050 C 299.466 239.850,299.425 240.063,299.428 240.521 " stroke="none" fill="#748bab" fill-rule="evenodd"></path><path id="path1" d="M150.784 11.358 C 149.102 12.300,149.211 14.610,150.979 15.498 C 153.061 16.544,155.337 14.104,154.076 12.179 C 153.447 11.219,151.776 10.802,150.784 11.358 M297.973 30.734 C 296.141 31.507,295.995 34.010,297.729 34.906 C 300.284 36.228,302.779 32.697,300.441 31.067 C 299.667 30.527,298.754 30.404,297.973 30.734 M327.238 70.469 C 327.052 71.070,326.840 71.938,326.766 72.396 C 326.320 75.177,325.919 75.766,324.976 75.028 C 324.703 74.814,323.964 74.362,323.333 74.023 C 322.703 73.683,321.864 73.206,321.468 72.961 C 320.071 72.096,320.530 73.000,322.617 75.221 C 324.920 77.675,325.012 78.647,323.250 81.979 C 322.303 83.770,323.246 83.417,325.672 81.072 C 326.327 80.438,326.899 79.961,326.942 80.012 C 326.985 80.063,327.181 80.948,327.376 81.979 C 327.815 84.289,327.899 84.583,328.120 84.583 C 328.286 84.583,329.033 81.595,329.276 79.956 L 329.391 79.182 330.529 79.910 C 332.584 81.225,332.667 81.144,331.564 78.903 C 330.950 77.657,330.878 77.375,331.108 77.098 C 333.218 74.561,334.202 73.299,334.128 73.225 C 334.009 73.107,332.310 73.768,330.674 74.569 C 328.964 75.407,329.033 75.438,328.750 73.698 C 328.042 69.343,327.767 68.757,327.238 70.469 M224.688 96.320 C 223.246 96.796,218.323 99.704,213.818 102.740 C 209.913 105.372,210.019 105.356,204.792 104.058 C 203.245 103.674,200.573 103.022,198.854 102.610 C 197.135 102.199,195.167 101.723,194.479 101.554 C 189.075 100.222,188.787 100.239,185.085 102.098 C 175.866 106.725,170.607 114.815,170.264 124.896 C 169.906 135.422,175.031 141.974,187.149 146.478 C 190.017 147.544,202.352 147.878,210.000 147.097 C 222.821 145.787,229.779 143.683,237.813 138.684 C 247.659 132.557,250.651 118.267,244.240 107.982 C 240.193 101.489,229.088 94.866,224.688 96.320 M27.728 100.573 C 27.739 101.117,27.809 102.430,27.884 103.490 C 27.972 104.727,27.946 105.416,27.813 105.415 C 27.501 105.412,23.285 104.434,22.865 104.267 C 22.002 103.924,22.598 104.655,23.802 105.415 C 27.700 107.876,28.007 108.448,27.271 111.879 C 27.019 113.058,27.110 113.327,27.620 112.903 C 28.026 112.567,29.332 110.558,29.595 109.866 C 29.890 109.091,30.127 109.270,30.942 110.885 C 32.355 113.684,32.654 113.530,32.319 110.178 C 32.072 107.719,32.051 107.788,32.958 108.122 C 35.152 108.930,35.492 108.730,34.219 107.382 C 32.774 105.853,32.810 106.067,33.657 104.027 C 34.748 101.398,34.799 101.250,34.617 101.250 C 34.527 101.250,34.269 101.414,34.043 101.615 C 32.470 103.010,31.058 104.158,30.850 104.210 C 30.625 104.266,29.444 102.232,28.616 100.365 C 28.120 99.243,27.704 99.341,27.728 100.573 M237.379 103.251 C 238.057 103.512,237.581 105.105,236.392 106.554 C 235.969 107.070,235.919 107.267,236.088 107.752 C 236.371 108.563,236.625 108.479,237.093 107.423 C 237.561 106.366,237.991 105.946,238.435 106.116 C 239.078 106.363,238.539 108.566,237.590 109.563 L 237.114 110.064 237.517 111.085 C 239.478 116.060,238.434 121.300,235.266 122.379 C 231.167 123.776,227.722 120.544,226.891 114.523 C 226.429 111.180,226.259 111.444,230.541 108.854 C 234.001 106.761,235.790 105.205,236.273 103.868 C 236.541 103.128,236.752 103.011,237.379 103.251 M180.377 110.293 C 181.049 111.432,185.183 113.339,190.077 114.769 C 191.694 115.242,191.920 115.675,192.040 118.542 C 192.294 124.586,190.392 127.910,186.579 128.083 C 182.509 128.269,180.271 124.266,180.836 117.813 C 180.916 116.903,180.884 116.323,180.753 116.271 C 180.105 116.015,178.977 114.635,178.947 114.063 C 178.871 112.612,179.212 112.528,180.208 113.750 C 181.014 114.739,181.458 114.825,181.458 113.994 C 181.458 113.535,181.254 113.257,180.538 112.743 C 179.124 111.728,178.458 109.583,179.556 109.583 C 179.793 109.583,180.131 109.875,180.377 110.293 M117.705 123.446 C 117.514 123.948,117.089 125.727,116.373 129.010 C 116.230 129.668,116.064 130.255,116.005 130.314 C 115.905 130.415,110.622 127.507,110.047 127.034 C 109.589 126.657,109.515 127.039,109.922 127.680 C 110.137 128.017,111.016 129.068,111.875 130.014 C 114.260 132.641,114.693 133.901,113.777 135.547 C 113.447 136.139,112.083 139.424,112.083 139.625 C 112.083 140.021,114.488 138.235,115.994 136.720 C 116.645 136.065,117.124 135.723,117.171 135.880 C 117.214 136.026,117.460 137.224,117.719 138.542 C 118.157 140.777,118.393 141.468,118.634 141.227 C 118.840 141.021,119.438 138.574,119.722 136.780 C 119.884 135.754,120.045 134.885,120.081 134.850 C 120.116 134.815,120.776 135.209,121.547 135.726 C 123.792 137.232,123.968 137.050,122.708 134.533 C 121.649 132.417,121.466 132.982,124.316 129.574 C 124.455 129.407,124.862 128.921,125.220 128.493 C 126.265 127.244,125.904 127.274,122.746 128.697 C 121.106 129.436,119.730 130.008,119.690 129.968 C 119.650 129.928,119.467 129.098,119.284 128.124 C 118.334 123.078,118.104 122.396,117.705 123.446 M212.989 124.214 C 214.651 125.388,214.819 126.415,213.569 127.755 L 212.763 128.619 210.892 128.709 L 209.020 128.798 208.260 128.038 C 206.889 126.667,207.778 124.199,209.752 123.898 C 211.324 123.658,212.342 123.757,212.989 124.214 M374.039 125.143 C 372.533 125.439,371.761 128.165,372.903 129.155 C 374.530 130.565,377.083 129.513,377.083 127.432 C 377.083 126.292,375.592 124.836,374.622 125.028 C 374.543 125.044,374.281 125.096,374.039 125.143 M217.727 131.269 L 218.163 131.705 217.727 132.010 C 217.488 132.178,217.292 132.455,217.292 132.626 C 217.292 132.797,216.841 133.387,216.290 133.938 C 213.645 136.583,208.203 136.636,205.841 134.040 C 205.488 133.651,205.107 133.333,204.995 133.333 C 204.549 133.333,204.829 132.700,205.406 132.401 C 206.254 131.963,206.601 132.003,206.740 132.555 C 206.895 133.172,208.791 134.317,210.045 134.552 C 212.798 135.066,216.250 133.344,216.250 131.458 C 216.250 130.683,217.041 130.582,217.727 131.269 M223.478 150.234 C 223.411 150.506,223.117 152.042,222.826 153.646 C 222.535 155.250,222.171 157.219,222.016 158.021 L 221.736 159.479 223.146 159.479 C 224.401 159.479,224.623 159.542,225.154 160.052 C 226.131 160.988,226.128 160.723,225.141 158.867 C 224.147 157.000,224.149 155.983,225.144 156.580 C 227.199 157.812,230.094 169.511,228.403 169.752 C 227.834 169.833,227.759 169.597,227.503 166.904 C 227.273 164.491,227.017 163.718,226.803 164.789 C 226.605 165.777,225.481 167.071,224.427 167.523 C 220.936 169.019,217.403 165.022,219.164 161.569 C 219.391 161.123,219.555 160.736,219.528 160.710 C 219.501 160.684,218.073 160.098,216.354 159.408 C 211.920 157.628,207.220 155.695,205.549 154.964 C 203.753 154.179,204.215 154.006,199.062 157.388 C 196.656 158.966,194.313 160.496,193.854 160.786 C 193.396 161.077,192.786 161.473,192.500 161.667 C 192.214 161.860,191.666 162.181,191.283 162.379 C 190.648 162.707,190.615 162.769,190.907 163.091 C 192.918 165.314,190.701 169.623,187.524 169.666 C 183.571 169.720,181.704 165.316,184.496 162.524 L 185.620 161.400 184.567 159.606 C 183.987 158.620,182.916 156.820,182.185 155.606 L 180.857 153.399 177.877 153.263 C 171.264 152.960,168.790 153.060,168.243 153.651 C 166.473 155.561,166.204 162.167,167.877 162.646 C 168.364 162.786,170.053 165.185,169.916 165.543 C 169.668 166.191,167.925 164.969,167.589 163.911 C 167.423 163.386,167.038 163.453,166.401 164.118 C 164.551 166.049,164.985 169.917,167.290 172.045 C 168.519 173.179,171.980 174.215,172.380 173.568 C 172.459 173.439,172.782 173.333,173.097 173.333 C 175.327 173.333,178.287 171.205,179.035 169.063 C 179.874 166.660,180.042 164.183,179.473 162.604 C 179.087 161.532,179.090 161.116,179.485 160.964 C 180.264 160.665,180.941 162.719,180.919 165.313 C 180.877 170.343,177.579 174.252,173.239 174.415 C 171.961 174.463,172.784 177.242,175.328 181.471 L 176.024 182.630 175.815 184.596 C 175.700 185.678,175.663 187.172,175.734 187.917 L 175.864 189.271 175.171 189.670 C 169.636 192.861,169.390 199.797,174.719 202.456 C 179.474 204.829,188.766 204.694,194.074 202.175 C 198.373 200.135,199.333 198.247,198.625 193.225 C 198.393 191.579,200.048 186.755,201.309 185.401 C 202.172 184.475,203.853 189.734,203.304 191.640 C 201.854 196.670,205.514 200.282,213.455 201.661 C 219.787 202.760,226.574 201.562,229.266 198.870 C 232.334 195.802,231.227 190.012,227.131 187.710 L 226.340 187.266 226.371 184.206 C 226.395 181.694,226.481 180.903,226.848 179.792 C 227.387 178.157,228.125 173.774,228.125 172.208 C 228.125 170.749,228.265 170.417,228.879 170.417 C 234.166 170.417,237.731 164.131,234.432 160.625 C 233.773 159.924,233.737 159.912,233.501 160.313 C 232.837 161.440,231.507 162.591,231.180 162.320 C 230.817 162.019,230.928 161.564,231.516 160.938 C 231.731 160.708,232.061 160.263,232.248 159.948 C 232.436 159.633,232.750 159.375,232.945 159.375 C 234.010 159.375,234.416 154.889,233.572 152.440 C 232.933 150.583,232.796 150.515,229.063 150.222 C 227.344 150.087,225.412 149.923,224.769 149.857 C 223.667 149.745,223.593 149.767,223.478 150.234 M310.938 171.822 C 308.908 172.318,308.368 175.017,310.088 176.066 C 312.375 177.461,315.110 174.734,313.428 172.735 C 312.791 171.978,311.794 171.612,310.938 171.822 M41.729 210.980 C 40.049 211.303,39.439 213.839,40.763 215.002 C 43.054 217.014,46.336 213.760,44.115 211.678 C 43.742 211.329,43.281 211.043,43.090 211.043 C 42.899 211.042,42.618 211.008,42.465 210.967 C 42.312 210.926,41.981 210.931,41.729 210.980 M158.874 218.426 C 158.542 218.573,158.100 219.010,157.893 219.398 C 156.423 222.158,160.241 224.254,162.067 221.690 C 163.437 219.766,161.145 217.423,158.874 218.426 M206.042 249.566 C 206.042 249.822,206.176 250.000,206.369 250.000 C 206.563 250.000,206.670 249.858,206.630 249.653 C 206.528 249.130,206.042 249.058,206.042 249.566 " stroke="none" fill="#f3ebdb" fill-rule="evenodd"></path><path id="path2" d="M263.333 24.732 C 260.673 25.678,259.756 26.900,259.716 29.556 C 259.691 31.212,259.742 31.492,260.181 32.088 C 260.746 32.855,260.876 32.702,258.542 34.002 C 257.682 34.480,252.573 37.462,247.188 40.627 C 241.802 43.793,236.451 46.912,235.296 47.558 C 234.141 48.204,231.657 49.703,229.775 50.887 C 227.894 52.072,225.510 53.523,224.479 54.112 C 223.448 54.700,222.310 55.493,221.951 55.872 L 221.298 56.563 221.456 60.833 C 221.639 65.822,221.749 65.260,220.667 64.887 C 209.651 61.091,188.469 63.086,177.307 68.970 C 175.417 69.966,175.448 70.003,175.573 66.919 C 175.723 63.229,175.804 63.348,172.053 61.736 C 168.355 60.146,156.153 55.546,150.417 53.579 C 148.068 52.773,143.427 51.159,140.104 49.991 C 136.781 48.824,133.648 47.786,133.142 47.684 C 132.010 47.457,131.932 47.387,132.482 47.093 C 133.360 46.623,132.935 43.122,131.838 41.792 C 129.101 38.471,123.598 39.349,122.697 43.250 C 121.871 46.825,123.618 49.510,127.087 50.001 C 128.904 50.257,128.716 49.660,130.106 59.583 C 131.299 68.109,135.868 93.069,136.305 93.452 C 136.438 93.568,141.459 94.904,145.729 95.958 C 148.365 96.609,150.608 97.220,150.714 97.316 C 150.831 97.422,150.568 98.872,150.047 100.985 C 149.277 104.116,149.179 104.804,149.105 107.604 C 148.624 125.864,156.293 137.649,172.500 143.558 L 173.745 144.012 172.699 144.662 C 170.310 146.146,164.826 149.702,163.909 150.363 C 162.929 151.068,162.924 151.077,163.232 151.672 C 163.402 152.001,163.542 152.475,163.542 152.724 C 163.542 153.172,163.573 153.176,166.719 153.101 C 168.466 153.060,172.340 153.049,175.327 153.076 L 180.759 153.125 182.703 156.302 C 183.772 158.049,184.890 159.877,185.188 160.364 C 185.726 161.243,185.737 161.249,186.953 161.250 C 187.832 161.250,188.528 161.408,189.422 161.809 C 191.089 162.557,190.976 162.613,200.891 156.088 C 204.210 153.903,203.497 153.935,207.813 155.778 C 209.417 156.462,212.764 157.844,215.252 158.848 L 219.775 160.674 220.705 160.085 L 221.635 159.497 222.063 157.196 C 222.298 155.931,222.677 153.781,222.905 152.419 C 223.134 151.057,223.370 149.894,223.430 149.834 C 223.490 149.774,227.099 149.993,231.451 150.320 C 235.802 150.648,239.399 150.873,239.444 150.822 C 239.488 150.771,239.578 150.307,239.643 149.792 L 239.761 148.854 235.037 145.862 L 230.313 142.869 227.396 143.822 C 216.681 147.323,194.001 149.020,187.569 146.802 C 172.000 141.432,166.405 129.790,172.286 115.000 C 174.717 108.888,183.572 101.115,188.804 100.500 C 190.040 100.355,189.945 100.335,200.625 102.961 C 204.349 103.877,208.078 104.676,208.911 104.737 L 210.427 104.847 212.765 103.285 C 223.717 95.968,225.370 95.298,229.128 96.652 C 241.434 101.086,247.695 109.342,247.706 121.150 C 247.710 125.259,245.696 131.047,243.255 133.941 C 242.006 135.422,241.946 135.507,242.292 135.311 C 244.548 134.031,249.823 127.820,251.846 124.063 C 256.983 114.523,256.700 100.449,251.148 89.379 C 250.503 88.092,250.004 87.013,250.039 86.982 C 250.075 86.950,251.824 86.239,253.926 85.402 C 256.028 84.565,258.232 83.543,258.822 83.131 L 259.896 82.381 260.250 78.743 C 261.168 69.326,261.703 63.190,262.284 55.417 C 262.630 50.776,263.102 44.469,263.332 41.401 C 263.562 38.333,263.750 35.655,263.750 35.451 C 263.750 35.132,263.941 35.078,265.075 35.078 C 268.553 35.078,271.301 30.877,269.785 27.877 C 268.866 26.060,268.753 25.922,267.620 25.250 C 266.280 24.456,264.662 24.260,263.333 24.732 M87.435 65.584 C 86.098 66.979,87.306 70.451,89.237 70.764 C 91.390 71.113,91.904 67.663,90.002 65.627 C 89.214 64.783,88.218 64.767,87.435 65.584 M75.404 66.397 C 73.394 68.088,73.794 71.667,75.993 71.667 C 77.398 71.667,78.004 70.795,78.094 68.644 C 78.202 66.046,77.007 65.048,75.404 66.397 M84.729 74.090 C 84.258 74.562,84.585 77.292,85.113 77.292 C 85.640 77.292,85.642 77.283,85.582 75.679 C 85.523 74.118,85.236 73.583,84.729 74.090 M82.083 75.819 C 82.083 77.481,82.089 77.500,82.613 77.500 C 83.391 77.500,83.333 74.315,82.552 74.204 C 82.099 74.140,82.083 74.195,82.083 75.819 M209.376 75.412 C 214.234 75.885,218.855 79.399,220.091 83.561 C 221.515 88.356,218.106 94.427,213.438 95.408 L 212.813 95.539 212.886 97.041 L 212.960 98.542 211.177 98.542 L 209.394 98.542 209.282 97.865 C 209.220 97.492,209.145 96.813,209.116 96.354 C 209.073 95.678,208.984 95.521,208.646 95.521 C 208.268 95.521,208.224 95.680,208.169 97.240 L 208.108 98.958 207.075 98.958 L 206.042 98.958 206.042 97.389 C 206.042 96.181,205.969 95.792,205.727 95.699 C 205.072 95.448,204.792 96.026,204.792 97.630 L 204.792 99.167 203.135 99.167 L 201.479 99.167 201.417 97.969 L 201.354 96.771 199.665 96.661 C 193.342 96.249,189.438 89.405,192.301 83.750 C 195.248 77.929,201.894 74.683,209.376 75.412 M212.631 85.640 C 209.953 87.753,212.456 93.094,215.409 91.567 C 216.408 91.050,216.875 90.275,216.875 89.132 C 216.875 86.346,214.360 84.276,212.631 85.640 M196.354 87.731 C 195.421 88.999,195.299 89.422,195.403 91.042 C 195.560 93.503,198.904 93.620,200.083 91.206 C 201.529 88.244,200.867 86.458,198.323 86.458 C 197.300 86.458,197.282 86.470,196.354 87.731 M236.713 103.307 C 236.599 103.379,236.367 103.769,236.199 104.173 C 235.631 105.536,234.405 106.521,228.945 110.000 L 226.819 111.354 226.958 113.638 C 227.283 119.001,229.818 122.618,233.229 122.584 C 237.804 122.538,239.636 117.959,237.591 111.684 L 237.019 109.931 237.462 109.573 C 237.925 109.197,238.750 107.346,238.750 106.681 C 238.750 105.603,237.704 106.258,237.026 107.760 C 236.611 108.679,236.404 108.734,236.075 108.011 C 235.735 107.264,235.771 106.996,236.273 106.543 C 237.709 105.245,238.091 102.441,236.713 103.307 M179.167 110.365 C 179.169 111.177,179.844 112.183,180.825 112.832 C 181.703 113.413,181.931 114.105,181.391 114.553 C 181.180 114.728,180.927 114.588,180.307 113.953 C 179.329 112.951,178.958 112.899,178.958 113.764 C 178.958 114.656,179.263 115.132,180.218 115.735 L 181.043 116.256 180.918 118.284 C 180.533 124.532,182.481 127.910,186.475 127.915 C 190.188 127.919,191.865 125.280,191.872 119.420 C 191.876 115.775,191.716 115.373,190.071 114.896 C 185.460 113.556,180.834 111.414,180.288 110.365 C 180.115 110.034,179.815 109.792,179.578 109.792 C 179.268 109.792,179.167 109.933,179.167 110.365 M298.396 118.544 C 297.707 118.822,297.227 119.903,297.395 120.799 C 298.103 124.574,302.083 125.491,302.083 121.879 C 302.083 119.526,300.196 117.819,298.396 118.544 M285.579 120.469 C 283.292 122.251,284.414 126.979,286.972 126.337 C 288.838 125.869,289.350 121.794,287.692 120.613 C 287.044 120.152,286.071 120.085,285.579 120.469 M295.843 128.010 C 295.386 128.560,296.009 131.250,296.593 131.250 C 297.171 131.250,297.233 130.682,296.841 128.984 C 296.589 127.889,296.232 127.541,295.843 128.010 M293.222 128.554 C 292.841 129.170,293.365 131.667,293.875 131.667 C 294.395 131.667,294.595 130.114,294.244 128.802 C 294.113 128.316,293.466 128.159,293.222 128.554 M216.250 131.571 C 216.250 134.966,207.910 135.874,206.670 132.614 C 206.459 132.058,205.308 132.205,205.073 132.818 C 204.906 133.253,206.433 134.593,207.855 135.259 C 211.035 136.747,216.076 135.296,217.217 132.565 C 217.376 132.185,217.598 131.875,217.711 131.875 C 218.129 131.875,217.899 131.309,217.386 131.075 C 216.480 130.663,216.250 130.763,216.250 131.571 M150.072 162.969 C 150.146 163.914,150.206 166.867,150.207 169.531 C 150.208 174.946,150.127 174.728,151.757 173.646 C 153.204 172.685,153.285 172.700,154.824 174.225 C 158.559 177.924,164.062 180.645,168.473 180.974 C 170.118 181.097,174.484 180.362,174.325 179.989 C 174.295 179.919,173.851 178.956,173.337 177.848 L 172.404 175.833 171.116 175.833 C 167.507 175.833,163.446 172.731,161.072 168.161 L 160.170 166.426 160.981 165.453 C 162.389 163.761,162.771 163.135,162.463 163.024 C 162.137 162.906,150.753 161.250,150.270 161.250 C 149.983 161.250,149.956 161.479,150.072 162.969 M78.737 183.891 C 77.571 184.944,77.221 185.690,77.351 186.845 C 77.598 189.032,80.245 188.825,81.697 186.504 C 83.226 184.062,80.859 181.973,78.737 183.891 M91.234 188.317 C 90.503 189.049,90.290 192.587,90.944 193.131 C 91.606 193.680,93.179 193.636,93.723 193.052 C 94.494 192.227,94.648 188.964,93.951 188.222 C 93.243 187.468,92.041 187.510,91.234 188.317 M82.295 195.201 C 81.671 196.438,81.670 196.445,82.102 196.677 C 82.631 196.960,82.578 197.013,83.226 195.548 C 84.109 193.552,83.283 193.244,82.295 195.201 M84.826 196.094 C 84.338 197.169,84.286 197.426,84.528 197.571 C 85.101 197.912,86.471 195.875,86.179 195.115 C 85.920 194.441,85.409 194.811,84.826 196.094 M304.514 229.261 C 303.308 230.175,304.502 234.424,306.125 234.996 C 308.519 235.839,309.904 233.240,308.359 230.803 C 307.347 229.208,305.540 228.484,304.514 229.261 M292.711 231.002 C 290.334 231.375,289.272 236.123,291.370 236.999 C 293.133 237.736,294.427 236.842,294.695 234.703 C 294.995 232.300,294.176 230.773,292.711 231.002 M302.336 239.206 C 301.669 239.873,302.312 242.500,303.142 242.500 C 303.865 242.500,303.884 242.331,303.377 240.434 C 303.007 239.052,302.770 238.772,302.336 239.206 M299.662 239.888 C 299.485 240.347,299.678 242.469,299.917 242.709 C 300.598 243.389,300.972 242.701,300.745 241.186 C 300.520 239.684,299.985 239.044,299.662 239.888 " stroke="none" fill="#0c1424" fill-rule="evenodd"></path><path id="path3" d="M263.590 37.708 C 263.590 38.109,263.633 38.273,263.685 38.073 C 263.738 37.872,263.738 37.544,263.685 37.344 C 263.633 37.143,263.590 37.307,263.590 37.708 M221.758 55.885 L 221.146 56.563 221.823 55.951 C 222.454 55.380,222.596 55.208,222.435 55.208 C 222.399 55.208,222.094 55.513,221.758 55.885 M78.125 56.824 C 77.380 57.118,76.724 57.414,76.667 57.482 C 76.609 57.549,76.193 57.792,75.741 58.021 C 71.621 60.111,69.638 65.972,71.566 70.365 C 71.881 71.081,72.219 71.667,72.319 71.667 C 72.419 71.667,72.500 71.775,72.500 71.907 C 72.500 72.737,75.832 74.734,77.644 74.991 C 79.197 75.211,79.374 75.303,79.378 75.898 C 79.386 77.136,79.551 77.292,80.858 77.292 L 82.083 77.292 82.083 75.751 C 82.083 74.506,82.150 74.186,82.431 74.078 C 82.992 73.863,83.161 74.241,83.185 75.764 L 83.207 77.198 83.922 77.115 L 84.636 77.032 84.533 75.741 C 84.415 74.281,84.678 73.657,85.269 73.988 C 85.493 74.114,85.625 74.443,85.625 74.880 C 85.625 75.261,85.684 75.870,85.757 76.233 L 85.889 76.893 87.163 76.832 L 88.438 76.771 88.499 75.505 L 88.560 74.239 89.436 73.855 C 91.151 73.103,93.333 70.744,93.333 69.642 C 93.333 69.426,93.451 69.133,93.594 68.989 C 94.286 68.296,93.925 64.143,93.021 62.404 C 91.556 59.584,89.014 57.378,86.275 56.547 C 84.523 56.015,79.762 56.177,78.125 56.824 M221.298 58.333 C 221.298 58.734,221.341 58.898,221.394 58.698 C 221.446 58.497,221.446 58.169,221.394 57.969 C 221.341 57.768,221.298 57.932,221.298 58.333 M221.414 64.583 C 221.363 64.927,221.400 65.208,221.494 65.208 C 221.589 65.208,221.667 64.927,221.667 64.583 C 221.667 64.240,221.630 63.958,221.586 63.958 C 221.542 63.958,221.464 64.240,221.414 64.583 M90.300 65.963 C 90.704 66.493,90.984 67.008,90.922 67.109 C 90.860 67.209,90.888 67.292,90.985 67.292 C 91.369 67.292,91.406 69.565,91.025 69.806 C 90.862 69.909,90.812 69.995,90.914 69.997 C 91.015 69.999,90.849 70.196,90.544 70.436 C 89.339 71.383,87.841 70.660,87.271 68.854 C 87.127 68.396,86.925 67.909,86.823 67.773 C 86.490 67.330,86.847 66.047,87.448 65.517 C 88.435 64.648,89.413 64.801,90.300 65.963 M77.041 65.960 C 78.253 66.144,78.736 70.176,77.630 70.878 C 77.501 70.960,77.396 71.124,77.396 71.242 C 77.396 71.361,77.340 71.435,77.272 71.406 C 77.203 71.378,77.016 71.456,76.855 71.581 C 76.617 71.766,75.459 71.822,75.260 71.658 C 75.232 71.634,75.092 71.603,74.951 71.589 C 74.216 71.514,73.856 69.397,74.332 67.959 C 74.861 66.363,75.686 65.754,77.041 65.960 M175.448 68.906 C 175.421 69.485,175.485 69.580,175.885 69.559 C 176.218 69.542,176.252 69.508,176.002 69.442 C 175.809 69.391,175.612 69.097,175.565 68.789 C 175.487 68.284,175.476 68.295,175.448 68.906 M204.583 75.428 C 198.372 76.166,192.367 81.136,191.485 86.270 C 190.593 91.465,194.413 96.318,199.665 96.661 L 201.354 96.771 201.417 97.969 L 201.479 99.167 203.135 99.167 L 204.792 99.167 204.792 97.630 C 204.792 96.026,205.072 95.448,205.727 95.699 C 205.969 95.792,206.042 96.181,206.042 97.389 L 206.042 98.958 207.075 98.958 L 208.108 98.958 208.169 97.240 C 208.224 95.680,208.268 95.521,208.646 95.521 C 208.984 95.521,209.073 95.678,209.116 96.354 C 209.145 96.813,209.220 97.492,209.282 97.865 L 209.394 98.542 211.177 98.542 L 212.960 98.542 212.886 97.041 L 212.813 95.539 213.438 95.408 C 216.095 94.849,219.548 91.373,220.128 88.672 C 221.885 80.488,214.557 74.244,204.583 75.428 M215.448 85.757 C 217.778 87.862,217.019 91.875,214.291 91.875 C 212.416 91.875,210.894 88.838,211.746 86.799 C 212.387 85.264,214.305 84.724,215.448 85.757 M199.872 86.694 C 201.008 87.211,201.097 89.127,200.083 91.206 C 199.377 92.651,198.834 92.998,197.478 92.867 C 195.773 92.704,195.280 91.948,195.386 89.658 C 195.485 87.532,198.026 85.853,199.872 86.694 M240.833 103.854 C 241.222 104.255,241.587 104.583,241.644 104.583 C 241.702 104.583,241.430 104.255,241.042 103.854 C 240.653 103.453,240.288 103.125,240.231 103.125 C 240.173 103.125,240.445 103.453,240.833 103.854 M255.481 107.396 C 255.482 108.083,255.521 108.339,255.568 107.965 C 255.614 107.591,255.613 107.028,255.566 106.715 C 255.518 106.402,255.480 106.708,255.481 107.396 M149.023 108.646 C 149.024 109.333,149.063 109.589,149.109 109.215 C 149.156 108.841,149.155 108.278,149.107 107.965 C 149.060 107.652,149.022 107.958,149.023 108.646 M291.667 109.530 C 290.922 109.572,290.223 109.694,290.115 109.803 C 290.006 109.911,289.648 110.000,289.319 110.000 C 288.752 110.000,286.224 111.177,286.076 111.510 C 286.038 111.596,285.917 111.667,285.807 111.667 C 285.570 111.667,285.304 111.873,283.876 113.166 C 277.876 118.600,280.901 129.062,288.609 129.538 C 290.368 129.647,290.625 129.853,290.625 131.159 C 290.625 131.618,290.710 131.666,291.510 131.664 C 293.251 131.658,293.325 131.589,293.201 130.094 C 293.074 128.554,293.244 128.103,293.866 128.337 C 294.207 128.466,294.305 128.705,294.343 129.510 C 294.411 130.969,294.538 131.250,295.125 131.250 C 295.613 131.250,296.126 130.539,295.907 130.166 C 295.633 129.699,295.622 127.963,295.892 127.859 C 296.254 127.720,296.762 128.016,296.782 128.377 C 296.790 128.525,296.874 129.142,296.968 129.748 L 297.139 130.850 298.101 130.726 C 300.162 130.460,300.049 130.563,299.892 129.095 L 299.752 127.790 300.556 127.427 C 301.381 127.055,303.125 125.538,303.125 125.193 C 303.125 125.087,303.266 125.000,303.438 125.000 C 303.623 125.000,303.750 124.809,303.750 124.528 C 303.750 124.269,303.956 123.683,304.208 123.226 C 305.030 121.735,304.885 118.037,303.924 116.014 C 302.447 112.903,299.919 110.863,296.107 109.704 C 295.063 109.386,294.595 109.368,291.667 109.530 M191.946 119.271 C 191.947 120.188,191.984 120.537,192.028 120.047 C 192.072 119.557,192.071 118.807,192.026 118.380 C 191.982 117.953,191.946 118.354,191.946 119.271 M301.011 119.192 C 301.429 119.656,301.843 120.286,301.932 120.591 C 302.251 121.688,302.323 122.665,302.095 122.805 C 301.970 122.882,301.922 123.033,301.988 123.139 C 302.054 123.246,302.009 123.333,301.887 123.333 C 301.766 123.333,301.667 123.474,301.667 123.646 C 301.667 123.818,301.485 123.958,301.262 123.958 C 301.040 123.958,300.804 124.046,300.737 124.154 C 300.262 124.922,298.329 123.474,297.646 121.839 C 297.063 120.443,297.612 118.150,298.453 118.472 C 298.616 118.535,298.750 118.495,298.750 118.384 C 298.750 117.833,300.280 118.379,301.011 119.192 M247.557 119.167 C 247.557 119.682,247.597 119.893,247.647 119.635 C 247.697 119.378,247.697 118.956,247.647 118.698 C 247.597 118.440,247.557 118.651,247.557 119.167 M287.488 120.501 C 287.726 120.682,287.752 120.665,287.611 120.417 C 287.514 120.245,287.666 120.339,287.950 120.625 C 288.233 120.911,288.428 121.220,288.381 121.311 C 288.335 121.402,288.379 121.590,288.480 121.728 C 289.776 123.518,287.751 126.987,285.867 126.203 C 285.562 126.076,285.244 125.965,285.160 125.955 C 284.694 125.902,284.319 124.862,284.317 123.622 C 284.314 121.051,286.012 119.380,287.488 120.501 M170.070 125.208 C 170.070 126.068,170.107 126.419,170.152 125.990 C 170.197 125.560,170.197 124.857,170.152 124.427 C 170.107 123.997,170.070 124.349,170.070 125.208 M208.410 124.868 C 206.568 126.711,207.667 128.646,210.557 128.646 C 213.838 128.646,215.391 126.641,213.542 124.792 L 212.708 123.958 211.014 123.958 L 209.320 123.958 208.410 124.868 M185.577 128.068 C 185.951 128.114,186.514 128.113,186.827 128.066 C 187.140 128.018,186.833 127.980,186.146 127.981 C 185.458 127.982,185.202 128.021,185.577 128.068 M246.239 131.615 L 245.521 132.396 246.302 131.678 C 247.029 131.010,247.179 130.833,247.020 130.833 C 246.985 130.833,246.634 131.185,246.239 131.615 M241.333 147.048 C 238.146 149.363,239.468 154.385,243.350 154.713 C 246.697 154.996,248.307 152.943,247.617 149.268 C 247.163 146.845,243.430 145.526,241.333 147.048 M194.743 147.651 C 195.118 147.697,195.680 147.696,195.993 147.649 C 196.306 147.601,196.000 147.563,195.313 147.565 C 194.625 147.566,194.369 147.605,194.743 147.651 M199.535 147.651 C 199.909 147.697,200.472 147.696,200.785 147.649 C 201.098 147.601,200.792 147.563,200.104 147.565 C 199.417 147.566,199.161 147.605,199.535 147.651 M158.438 148.737 C 154.607 149.237,153.573 153.927,156.711 156.568 C 159.872 159.228,165.101 155.286,163.224 151.656 C 163.049 151.318,162.979 151.040,163.068 151.038 C 163.156 151.037,163.131 150.966,163.011 150.882 C 162.891 150.798,162.578 150.422,162.316 150.047 C 161.810 149.323,160.473 148.522,159.852 148.571 C 159.647 148.587,159.010 148.662,158.438 148.737 M168.073 153.067 C 168.445 153.114,169.055 153.114,169.427 153.067 C 169.799 153.021,169.495 152.983,168.750 152.983 C 168.005 152.983,167.701 153.021,168.073 153.067 M179.583 153.206 C 179.583 153.251,179.905 153.325,180.298 153.371 C 180.691 153.417,180.967 153.380,180.911 153.290 C 180.810 153.127,179.583 153.050,179.583 153.206 M221.771 159.552 C 218.321 160.674,217.699 165.025,220.701 167.031 C 222.487 168.225,224.377 167.950,225.889 166.276 C 228.561 163.318,225.510 158.336,221.771 159.552 M184.651 162.362 C 183.626 163.397,183.483 163.677,183.266 165.074 C 182.887 167.523,185.117 169.717,187.810 169.546 C 190.751 169.359,192.440 166.180,191.048 163.451 C 190.823 163.009,190.698 162.551,190.770 162.434 C 190.850 162.305,190.765 162.273,190.555 162.354 C 190.364 162.427,190.208 162.408,190.208 162.311 C 190.208 161.916,188.134 161.250,186.941 161.262 C 185.762 161.273,185.700 161.303,184.651 162.362 M150.073 165.208 C 150.073 166.182,150.109 166.581,150.153 166.094 C 150.196 165.607,150.196 164.810,150.153 164.323 C 150.109 163.836,150.073 164.234,150.073 165.208 M83.438 175.091 C 83.323 175.138,82.536 175.389,81.690 175.648 C 78.671 176.570,76.328 178.788,75.408 181.594 C 75.263 182.035,75.033 182.583,74.896 182.813 C 74.080 184.179,74.789 188.303,76.162 190.172 C 76.810 191.053,78.339 192.489,78.646 192.504 C 79.474 192.544,79.850 193.329,79.491 194.269 C 79.086 195.329,79.134 195.474,80.036 195.924 C 81.273 196.542,81.723 196.382,82.350 195.104 C 83.275 193.219,84.080 193.618,83.229 195.540 C 82.705 196.727,82.704 196.736,83.113 197.117 C 83.822 197.778,84.153 197.588,84.807 196.146 C 85.410 194.815,85.917 194.434,86.179 195.115 C 86.457 195.839,85.098 197.922,84.564 197.592 C 84.410 197.497,84.364 197.523,84.448 197.658 C 84.524 197.780,84.983 197.944,85.470 198.023 C 85.956 198.101,86.562 198.297,86.816 198.458 C 87.702 199.019,88.092 198.837,88.637 197.604 L 89.144 196.458 90.547 196.458 C 92.174 196.458,93.108 196.186,94.271 195.372 C 94.729 195.051,95.344 194.681,95.638 194.551 C 96.582 194.131,98.375 190.951,98.753 189.026 C 99.007 187.737,98.743 184.367,98.349 183.859 C 98.258 183.742,98.126 183.340,98.055 182.967 C 97.984 182.593,97.753 182.031,97.540 181.717 C 97.328 181.403,96.740 180.515,96.233 179.745 C 95.727 178.974,95.212 178.341,95.088 178.338 C 94.965 178.336,94.639 178.094,94.364 177.800 C 93.856 177.260,92.292 176.442,90.208 175.627 C 89.134 175.206,84.115 174.809,83.438 175.091 M81.340 183.365 C 83.312 184.263,81.403 188.333,79.009 188.333 C 77.889 188.333,77.478 187.964,77.351 186.845 C 77.101 184.622,79.502 182.527,81.340 183.365 M93.951 188.222 C 94.648 188.964,94.494 192.227,93.723 193.052 C 93.179 193.636,91.606 193.680,90.944 193.131 C 90.290 192.587,90.503 189.049,91.234 188.317 C 92.041 187.510,93.243 187.468,93.951 188.222 M296.771 219.887 C 296.656 219.921,296.141 220.075,295.625 220.230 C 294.334 220.615,291.947 221.791,291.394 222.313 C 291.143 222.550,290.692 222.873,290.391 223.030 C 286.693 224.969,285.178 233.485,287.912 236.966 C 288.776 238.065,290.299 239.583,290.539 239.583 C 290.688 239.583,291.121 239.767,291.501 239.992 C 292.403 240.524,294.897 241.097,295.618 240.939 C 296.307 240.788,296.565 241.072,296.733 242.161 C 296.885 243.152,296.814 243.086,297.891 243.222 C 298.487 243.296,298.925 243.235,299.209 243.035 C 299.525 242.814,299.727 242.795,299.992 242.960 C 300.249 243.121,300.461 243.116,300.748 242.943 C 301.102 242.730,301.078 242.709,300.532 242.758 C 299.473 242.852,298.894 240.078,299.878 239.629 C 300.470 239.360,300.605 239.572,300.749 240.999 C 300.914 242.629,300.996 242.742,301.848 242.509 C 302.330 242.377,302.385 242.275,302.303 241.648 C 302.106 240.138,302.182 239.324,302.542 239.095 C 302.941 238.841,303.123 238.951,303.229 239.512 C 303.269 239.723,303.323 239.943,303.348 240.000 C 303.374 240.057,303.410 240.245,303.428 240.417 C 303.445 240.589,303.537 241.088,303.631 241.526 L 303.802 242.324 304.862 242.178 C 306.568 241.943,306.719 241.778,306.569 240.313 L 306.440 239.063 307.438 238.542 C 309.679 237.372,311.337 234.775,311.563 232.083 C 311.728 230.103,311.408 227.212,310.975 226.779 C 310.798 226.601,310.587 226.245,310.506 225.988 C 310.426 225.731,310.303 225.474,310.232 225.417 C 310.162 225.359,309.777 224.891,309.376 224.376 C 307.833 222.390,305.308 220.717,302.813 220.025 C 302.087 219.824,297.343 219.715,296.771 219.887 M306.250 229.004 C 306.536 229.036,306.885 229.203,307.025 229.375 C 307.164 229.547,307.281 229.603,307.285 229.499 C 307.296 229.199,308.125 230.034,308.125 230.345 C 308.125 230.499,308.211 230.625,308.317 230.625 C 308.725 230.625,309.094 232.438,308.977 233.874 C 308.950 234.206,308.221 235.000,307.944 235.000 C 307.815 235.000,307.708 235.070,307.708 235.156 C 307.708 235.242,307.387 235.315,306.995 235.319 C 306.597 235.322,306.336 235.238,306.404 235.127 C 306.472 235.018,306.394 234.977,306.232 235.036 C 306.070 235.095,305.683 234.877,305.373 234.551 C 305.062 234.225,304.858 233.958,304.919 233.958 C 304.980 233.958,304.882 233.810,304.700 233.629 C 304.519 233.448,304.424 233.214,304.490 233.108 C 304.555 233.003,304.499 232.917,304.365 232.917 C 304.231 232.917,304.176 232.776,304.242 232.604 C 304.308 232.432,304.266 232.292,304.148 232.292 C 304.030 232.292,303.994 232.194,304.068 232.074 C 304.142 231.955,304.097 231.729,303.967 231.573 C 303.838 231.417,303.789 231.064,303.858 230.789 C 303.927 230.513,304.004 230.150,304.028 229.982 C 304.105 229.459,304.874 228.794,305.313 228.872 C 305.542 228.912,305.964 228.972,306.250 229.004 M293.783 231.128 C 293.973 231.212,294.239 231.578,294.373 231.942 C 294.508 232.306,294.693 232.750,294.785 232.927 C 294.944 233.235,294.936 233.454,294.718 234.896 C 294.553 235.982,294.490 236.127,294.014 236.517 C 293.759 236.727,293.571 237.006,293.598 237.137 C 293.653 237.409,292.304 237.365,291.526 237.069 C 291.260 236.968,291.042 236.934,291.042 236.993 C 291.042 237.052,290.911 236.979,290.751 236.831 C 290.591 236.683,290.499 236.499,290.546 236.421 C 290.593 236.343,290.551 236.229,290.453 236.168 C 290.305 236.077,290.279 233.347,290.424 233.177 C 290.449 233.148,290.488 233.055,290.512 232.969 C 290.684 232.350,291.065 231.708,291.470 231.354 C 291.777 231.085,291.894 231.048,291.799 231.250 C 291.668 231.528,291.677 231.528,291.885 231.250 C 292.127 230.928,293.173 230.861,293.783 231.128 " stroke="none" fill="#3c5c73" fill-rule="evenodd"></path></g></svg>