<svg id="svg" version="1.1" xmlns="http://www.w3.org/2000/svg" xmlns:xlink="http://www.w3.org/1999/xlink" width="400" height="225" viewBox="0, 0, 400,225"><g id="svgg"><path id="path0" d="M190.514 71.254 C 188.729 71.755,187.746 72.630,186.884 74.486 C 186.653 74.983,186.440 75.546,186.411 75.736 C 186.381 75.927,186.299 76.458,186.229 76.917 C 186.005 78.372,186.062 82.174,186.321 83.083 C 186.758 84.620,186.825 84.667,188.561 84.667 C 189.871 84.667,190.965 84.812,192.833 85.235 C 193.675 85.426,195.088 85.890,195.242 86.026 C 195.329 86.103,195.500 86.167,195.623 86.167 C 197.590 86.167,203.389 90.514,205.735 93.748 C 206.002 94.116,206.264 94.454,206.319 94.500 C 206.470 94.628,207.103 95.981,207.489 97.000 C 207.852 97.961,208.401 100.755,208.269 100.970 C 208.226 101.038,208.149 101.460,208.096 101.906 C 207.983 102.869,207.291 104.463,206.925 104.603 C 206.783 104.658,206.667 104.796,206.667 104.911 C 206.667 105.026,206.471 105.262,206.232 105.435 C 205.992 105.608,205.681 105.860,205.541 105.994 C 204.786 106.716,202.315 107.267,200.000 107.232 C 196.913 107.184,193.213 106.051,191.834 104.732 C 191.696 104.600,191.283 104.270,190.917 103.998 C 190.550 103.726,190.156 103.425,190.042 103.329 C 189.927 103.232,189.833 103.188,189.833 103.230 C 189.833 103.345,188.530 101.994,188.112 101.446 C 187.913 101.185,187.647 100.862,187.522 100.728 C 187.396 100.594,187.333 100.445,187.381 100.397 C 187.518 100.260,188.161 100.720,188.258 101.026 C 188.307 101.178,188.456 101.345,188.590 101.396 C 188.724 101.447,188.833 101.609,188.833 101.755 C 188.833 101.900,188.902 101.977,188.987 101.925 C 189.071 101.873,189.288 102.018,189.469 102.248 C 189.650 102.478,189.859 102.667,189.934 102.667 C 190.008 102.667,190.335 102.919,190.660 103.228 C 190.984 103.537,191.700 104.032,192.250 104.328 C 192.800 104.623,193.340 104.939,193.451 105.030 C 193.818 105.332,194.859 105.813,195.391 105.926 C 195.680 105.988,196.010 106.114,196.125 106.206 C 196.240 106.299,196.333 106.325,196.333 106.265 C 196.333 106.204,196.474 106.230,196.645 106.322 C 198.188 107.147,204.667 106.856,204.667 105.961 C 204.667 105.891,204.774 105.833,204.905 105.833 C 205.203 105.833,207.167 103.856,207.167 103.555 C 207.167 103.433,207.246 103.333,207.343 103.333 C 207.440 103.333,207.475 103.260,207.420 103.171 C 207.365 103.082,207.431 102.839,207.567 102.630 C 207.853 102.191,207.898 99.388,207.624 99.042 C 207.533 98.927,207.501 98.833,207.553 98.833 C 207.632 98.833,207.043 96.956,206.716 96.167 C 206.659 96.029,206.600 95.879,206.586 95.833 C 206.466 95.454,206.086 94.833,205.973 94.833 C 205.896 94.833,205.833 94.754,205.833 94.658 C 205.833 94.561,205.634 94.233,205.391 93.928 C 205.148 93.623,204.942 93.311,204.933 93.233 C 204.924 93.156,204.729 92.896,204.500 92.656 C 204.271 92.416,203.774 91.889,203.397 91.485 C 202.098 90.094,200.860 89.117,199.432 88.355 C 198.890 88.066,198.335 87.737,198.198 87.623 C 198.061 87.510,197.904 87.436,197.849 87.459 C 197.720 87.515,196.282 86.794,196.144 86.604 C 196.085 86.523,195.954 86.509,195.852 86.572 C 195.750 86.635,195.667 86.594,195.667 86.482 C 195.667 86.370,195.625 86.320,195.574 86.371 C 195.522 86.422,195.092 86.322,194.618 86.149 C 194.143 85.975,193.585 85.833,193.377 85.833 C 193.170 85.833,193.000 85.774,193.000 85.702 C 193.000 85.630,192.869 85.556,192.708 85.539 C 192.548 85.521,191.929 85.400,191.333 85.269 C 188.789 84.710,185.942 85.078,183.668 86.259 C 182.771 86.725,180.500 89.041,180.500 89.490 C 180.500 89.574,180.403 89.742,180.285 89.863 C 178.663 91.523,177.776 97.948,178.264 104.500 C 178.288 104.821,178.313 105.740,178.321 106.542 C 178.335 108.187,178.373 108.226,179.174 107.417 C 180.106 106.473,180.322 106.191,180.154 106.135 C 180.066 106.105,180.482 105.763,181.078 105.374 C 183.124 104.039,185.307 104.497,186.426 106.495 C 186.982 107.487,187.236 107.684,187.937 107.666 C 189.472 107.626,191.667 108.841,191.667 109.730 C 191.667 110.062,192.095 110.843,192.226 110.749 C 192.287 110.705,192.260 110.759,192.168 110.868 C 192.076 110.977,192.000 111.203,192.000 111.369 C 192.000 111.535,191.934 111.801,191.853 111.961 C 191.772 112.120,191.603 112.467,191.478 112.732 C 191.354 112.997,190.944 113.522,190.569 113.899 C 189.807 114.664,189.613 115.046,189.859 115.293 C 190.342 115.775,190.294 117.833,189.800 117.833 C 189.727 117.833,189.664 117.927,189.661 118.042 C 189.651 118.445,187.880 119.329,187.000 119.371 C 186.569 119.391,185.435 119.163,185.340 119.037 C 185.291 118.971,185.100 118.896,184.917 118.870 C 184.279 118.782,184.165 118.729,183.936 118.414 C 183.711 118.108,183.688 118.111,183.144 118.517 C 180.345 120.608,176.017 119.081,176.973 116.340 C 177.129 115.891,177.094 115.804,176.566 115.341 C 175.823 114.688,175.645 114.702,175.011 115.458 C 174.318 116.287,174.253 116.374,174.115 116.667 C 174.050 116.804,173.657 117.517,173.243 118.250 C 172.160 120.166,171.898 120.754,171.274 122.667 C 170.846 123.982,170.629 124.751,170.570 125.167 C 170.495 125.694,170.318 126.596,170.234 126.871 C 170.008 127.615,170.146 132.125,170.431 133.333 C 170.502 133.634,170.826 134.850,170.897 135.083 C 171.530 137.156,174.114 140.431,176.167 141.761 C 176.579 142.028,176.954 142.289,177.000 142.341 C 177.046 142.393,177.440 142.600,177.875 142.801 C 178.310 143.002,178.998 143.322,179.404 143.512 C 181.018 144.269,181.562 143.682,180.530 142.299 C 179.125 140.415,178.555 138.507,178.598 135.833 C 178.623 134.263,179.126 131.876,179.526 131.425 C 179.603 131.338,179.667 131.143,179.667 130.992 C 179.667 129.759,183.984 125.644,187.113 123.894 C 189.634 122.484,194.202 120.840,195.010 121.051 C 195.188 121.097,195.298 121.078,195.255 121.008 C 194.876 120.395,204.346 120.117,207.417 120.652 C 210.698 121.223,211.193 121.333,212.500 121.785 C 219.884 124.335,224.548 129.704,224.561 135.667 L 224.565 137.583 223.701 139.655 C 222.736 141.967,222.735 142.003,223.647 141.592 C 225.136 140.921,227.301 138.050,228.680 134.917 C 230.352 131.117,229.994 124.910,227.816 119.961 C 227.459 119.149,227.167 118.380,227.167 118.251 C 227.167 118.122,227.069 117.957,226.950 117.883 C 226.831 117.810,226.519 117.375,226.256 116.917 C 225.325 115.289,224.132 113.879,221.176 110.910 C 219.230 108.956,218.188 107.789,218.198 107.577 C 218.225 107.021,216.407 100.972,215.846 99.750 C 215.582 99.174,215.351 98.626,215.250 98.333 C 215.128 97.981,214.924 97.484,214.669 96.917 C 214.031 95.502,213.833 95.029,213.833 94.915 C 213.833 94.778,212.890 92.701,212.661 92.333 C 212.575 92.196,212.392 91.821,212.254 91.500 C 212.116 91.179,211.930 90.804,211.840 90.667 C 211.750 90.529,211.526 90.117,211.341 89.750 C 211.156 89.383,210.739 88.633,210.414 88.083 C 210.089 87.533,209.717 86.852,209.588 86.570 C 209.459 86.288,209.236 85.960,209.093 85.841 C 208.950 85.723,208.833 85.567,208.833 85.495 C 208.833 85.257,205.241 80.030,204.437 79.099 C 204.003 78.595,203.635 78.123,203.620 78.050 C 203.588 77.894,200.364 74.667,200.240 74.667 C 200.079 74.667,198.519 73.370,198.592 73.297 C 198.633 73.256,198.569 73.222,198.450 73.222 C 198.332 73.222,197.757 72.943,197.175 72.601 C 194.930 71.286,192.298 70.753,190.514 71.254 M183.583 146.613 C 183.217 146.862,182.692 147.275,182.417 147.532 C 182.142 147.788,181.860 147.999,181.792 147.999 C 181.538 148.001,181.678 148.432,182.068 148.853 C 182.545 149.367,183.908 150.500,184.050 150.500 C 184.105 150.500,184.472 150.716,184.867 150.979 C 185.736 151.561,188.243 152.765,188.923 152.928 C 189.195 152.993,189.492 153.101,189.583 153.169 C 189.840 153.358,190.823 153.530,191.802 153.558 L 192.688 153.583 193.455 152.167 C 194.506 150.224,195.500 148.212,195.500 148.027 C 195.500 147.942,195.069 147.829,194.542 147.774 C 194.015 147.720,193.096 147.597,192.500 147.501 C 191.904 147.405,191.079 147.288,190.667 147.241 C 189.665 147.127,188.535 146.928,186.500 146.507 C 184.630 146.121,184.290 146.133,183.583 146.613 M208.250 147.432 C 206.825 147.775,205.833 148.104,205.833 148.233 C 205.833 148.451,206.667 149.848,207.030 150.237 C 207.197 150.416,207.333 150.611,207.333 150.669 C 207.333 150.727,207.665 151.202,208.071 151.725 C 208.476 152.247,208.836 152.758,208.870 152.861 C 209.040 153.371,213.167 150.483,213.167 149.854 C 213.167 148.587,209.978 147.016,208.250 147.432 " stroke="none" fill="#db637b" fill-rule="evenodd"></path><path id="path1" d="M182.208 105.203 C 182.002 105.303,181.833 105.452,181.833 105.535 C 181.833 105.618,181.756 105.639,181.663 105.581 C 181.569 105.523,181.502 105.537,181.516 105.613 C 181.577 105.963,181.466 106.129,181.042 106.322 C 180.790 106.437,180.555 106.518,180.521 106.502 C 180.405 106.448,179.851 107.395,179.927 107.517 C 179.968 107.584,179.929 107.663,179.840 107.694 C 179.750 107.725,179.659 107.994,179.637 108.292 C 179.592 108.880,179.517 108.905,177.875 108.883 C 177.379 108.876,177.167 108.942,177.167 109.103 C 177.167 109.304,176.852 109.415,176.458 109.353 C 176.390 109.342,176.352 109.415,176.375 109.516 C 176.398 109.616,176.267 109.784,176.083 109.891 C 175.716 110.103,175.457 110.450,175.379 110.833 C 175.267 111.385,175.241 112.640,175.343 112.577 C 175.403 112.540,175.414 112.706,175.368 112.946 C 175.311 113.247,175.344 113.346,175.476 113.265 C 175.593 113.192,175.667 113.267,175.667 113.459 C 175.667 113.631,175.892 113.987,176.167 114.250 C 176.442 114.513,176.667 114.653,176.667 114.559 C 176.667 114.372,177.047 114.374,177.622 114.564 C 177.892 114.653,177.976 114.788,177.926 115.052 C 177.889 115.253,177.844 115.567,177.826 115.750 C 177.803 115.987,177.758 115.940,177.667 115.583 C 177.581 115.243,177.548 115.496,177.562 116.375 C 177.582 117.608,177.772 118.003,178.094 117.482 C 178.246 117.237,178.494 117.626,178.497 118.115 C 178.501 118.616,178.613 118.658,180.155 118.743 C 180.898 118.784,181.598 118.870,181.711 118.935 C 181.824 119.000,181.864 118.995,181.800 118.924 C 181.676 118.786,182.046 118.333,182.281 118.333 C 182.358 118.333,182.511 118.187,182.623 118.009 C 182.743 117.816,182.958 117.710,183.153 117.747 C 183.383 117.792,183.453 117.739,183.389 117.572 C 183.279 117.284,183.758 117.243,183.933 117.526 C 184.006 117.645,183.978 117.673,183.859 117.599 C 183.753 117.534,183.667 117.549,183.667 117.633 C 183.667 117.717,183.891 117.778,184.166 117.768 C 184.441 117.758,184.666 117.679,184.666 117.592 C 184.667 117.293,185.017 117.782,185.042 118.117 C 185.061 118.362,185.154 118.428,185.393 118.366 C 185.640 118.302,185.684 118.338,185.577 118.515 C 185.460 118.710,185.481 118.714,185.700 118.536 C 185.918 118.360,186.010 118.367,186.220 118.578 C 186.521 118.878,187.167 118.920,187.167 118.639 C 187.167 118.532,187.213 118.490,187.269 118.547 C 187.606 118.884,189.500 117.680,189.500 117.128 C 189.500 116.955,189.575 116.860,189.666 116.916 C 189.869 117.041,189.850 116.287,189.632 115.542 C 189.510 115.123,189.382 115.000,189.070 115.000 C 188.761 115.000,188.668 114.912,188.672 114.625 C 188.679 114.145,189.349 113.632,189.679 113.854 C 189.867 113.981,189.851 114.004,189.601 113.965 C 189.427 113.939,189.264 114.012,189.238 114.129 C 189.213 114.246,189.230 114.264,189.277 114.170 C 189.324 114.075,189.430 114.040,189.514 114.092 C 189.786 114.260,190.035 113.993,189.833 113.750 C 189.616 113.488,189.894 113.250,190.416 113.250 C 190.599 113.250,190.748 113.138,190.749 113.000 C 190.750 112.862,190.888 112.547,191.056 112.299 C 191.224 112.051,191.313 111.769,191.254 111.673 C 191.194 111.576,191.263 111.453,191.406 111.398 C 191.695 111.287,191.769 110.500,191.490 110.500 C 191.393 110.500,191.361 110.423,191.419 110.329 C 191.477 110.235,191.430 110.179,191.314 110.204 C 191.198 110.229,191.072 110.100,191.034 109.917 C 190.948 109.497,190.518 109.002,190.279 109.048 C 190.180 109.068,190.086 108.990,190.070 108.875 C 190.054 108.760,190.032 108.595,190.021 108.508 C 190.009 108.420,189.794 108.364,189.542 108.383 C 189.290 108.401,189.096 108.342,189.111 108.250 C 189.127 108.155,188.735 108.086,188.194 108.090 C 187.675 108.094,187.142 108.019,187.010 107.924 C 186.822 107.788,186.798 107.805,186.899 108.000 C 186.971 108.138,186.874 108.063,186.685 107.833 C 186.496 107.604,186.339 107.356,186.337 107.282 C 186.335 107.208,186.258 107.193,186.167 107.250 C 186.075 107.307,186.000 107.194,186.000 107.000 C 186.000 106.776,186.070 106.690,186.192 106.766 C 186.315 106.842,186.339 106.811,186.259 106.681 C 186.190 106.569,186.093 106.518,186.045 106.566 C 185.996 106.615,185.808 106.576,185.627 106.479 C 185.398 106.356,185.351 106.249,185.471 106.129 C 185.696 105.904,185.251 105.428,184.976 105.598 C 184.855 105.673,184.827 105.645,184.901 105.526 C 185.059 105.269,184.791 105.280,184.509 105.542 C 184.328 105.710,184.309 105.706,184.414 105.523 C 184.692 105.034,183.052 104.797,182.208 105.203 M185.333 107.427 C 185.333 107.559,185.258 107.667,185.167 107.667 C 185.075 107.667,185.000 107.512,185.000 107.323 C 185.000 107.135,185.075 107.027,185.167 107.083 C 185.258 107.140,185.333 107.294,185.333 107.427 M184.070 109.524 C 184.301 109.629,184.450 109.779,184.402 109.858 C 184.307 110.010,184.525 110.055,185.125 110.007 C 185.331 109.990,185.500 110.061,185.500 110.165 C 185.500 110.268,185.576 110.306,185.668 110.249 C 185.895 110.109,186.295 110.531,186.202 110.812 C 186.138 111.001,186.101 111.001,185.967 110.811 C 185.838 110.626,185.821 110.630,185.880 110.833 C 185.919 110.971,186.089 111.058,186.258 111.027 C 186.512 110.980,186.530 111.013,186.362 111.216 C 186.199 111.412,186.209 111.480,186.412 111.559 C 186.670 111.658,186.778 112.500,186.533 112.500 C 186.460 112.500,186.412 112.802,186.428 113.170 C 186.444 113.539,186.380 113.888,186.286 113.946 C 186.188 114.007,186.166 113.970,186.234 113.859 C 186.424 113.552,185.914 113.634,185.621 113.958 C 185.476 114.119,185.333 114.323,185.304 114.413 C 185.274 114.503,185.137 114.592,185.000 114.612 C 184.068 114.745,183.670 114.871,183.755 115.008 C 183.809 115.095,183.642 115.166,183.385 115.164 C 183.015 115.162,182.969 115.126,183.167 114.992 C 183.352 114.867,183.298 114.851,182.958 114.930 C 182.670 114.997,182.500 114.968,182.500 114.851 C 182.500 114.750,182.415 114.667,182.311 114.667 C 182.208 114.667,181.852 114.499,181.520 114.294 C 181.189 114.090,180.796 113.943,180.647 113.968 C 180.299 114.027,180.163 113.507,180.331 112.761 C 180.409 112.416,180.397 112.160,180.302 112.128 C 179.986 112.023,180.361 111.166,180.767 111.064 C 180.986 111.009,181.128 110.906,181.084 110.834 C 180.978 110.663,181.415 110.304,181.557 110.446 C 181.617 110.506,181.667 110.471,181.667 110.368 C 181.667 110.264,181.966 110.099,182.331 110.001 C 182.697 109.902,182.988 109.768,182.978 109.702 C 182.915 109.278,183.367 109.204,184.070 109.524 M176.667 113.472 C 176.667 113.689,176.469 113.834,176.307 113.734 C 176.135 113.627,176.284 113.333,176.510 113.333 C 176.596 113.333,176.667 113.396,176.667 113.472 M178.333 113.500 C 178.333 113.592,178.183 113.667,178.000 113.667 C 177.817 113.667,177.667 113.592,177.667 113.500 C 177.667 113.408,177.817 113.333,178.000 113.333 C 178.183 113.333,178.333 113.408,178.333 113.500 M177.667 118.083 C 177.781 118.221,177.938 118.333,178.015 118.333 C 178.093 118.333,178.113 118.221,178.060 118.083 C 178.008 117.946,177.851 117.833,177.712 117.833 C 177.506 117.833,177.498 117.880,177.667 118.083 " stroke="none" fill="#fba1a3" fill-rule="evenodd"></path><path id="path2" d="M182.542 110.451 C 182.335 110.491,182.167 110.593,182.167 110.678 C 182.167 110.764,182.082 110.833,181.978 110.833 C 181.086 110.833,180.706 112.946,181.462 113.703 C 182.917 115.157,186.071 114.129,185.918 112.249 C 185.799 110.780,184.479 110.078,182.542 110.451 " stroke="none" fill="#fbd4b6" fill-rule="evenodd"></path><path id="path3" d="M181.500 105.618 C 181.182 105.734,180.500 106.350,180.500 106.521 C 180.500 106.724,181.440 106.134,181.649 105.800 C 181.752 105.635,181.817 105.506,181.793 105.513 C 181.769 105.520,181.637 105.567,181.500 105.618 M185.439 106.131 C 185.376 106.233,185.476 106.398,185.662 106.498 C 185.848 106.597,186.000 106.830,186.000 107.016 C 186.000 107.201,186.075 107.307,186.167 107.250 C 186.258 107.193,186.335 107.208,186.337 107.282 C 186.339 107.356,186.492 107.604,186.677 107.833 C 187.011 108.249,187.011 108.248,186.675 107.583 C 186.188 106.623,185.578 105.906,185.439 106.131 M185.000 107.323 C 185.000 107.512,185.075 107.667,185.167 107.667 C 185.258 107.667,185.333 107.559,185.333 107.427 C 185.333 107.294,185.258 107.140,185.167 107.083 C 185.075 107.027,185.000 107.135,185.000 107.323 M188.417 108.102 C 188.600 108.148,188.862 108.231,189.000 108.285 C 189.449 108.462,189.667 108.473,189.667 108.319 C 189.667 108.235,189.648 108.163,189.625 108.158 C 189.309 108.094,188.175 108.042,188.417 108.102 M190.072 108.792 C 190.096 108.952,190.156 109.046,190.207 109.000 C 190.362 108.859,191.000 109.534,191.000 109.839 C 191.000 109.997,191.109 110.216,191.242 110.327 C 191.683 110.693,191.223 109.493,190.722 108.971 C 190.203 108.430,190.011 108.377,190.072 108.792 M177.000 109.000 C 177.000 109.092,176.920 109.167,176.821 109.167 C 176.723 109.167,176.537 109.272,176.408 109.402 C 176.278 109.531,176.078 109.671,175.961 109.712 C 175.845 109.754,175.807 109.848,175.876 109.922 C 175.945 109.996,176.175 109.894,176.386 109.695 C 176.598 109.496,176.860 109.333,176.969 109.333 C 177.078 109.333,177.167 109.221,177.167 109.083 C 177.167 108.946,177.129 108.833,177.083 108.833 C 177.037 108.833,177.000 108.908,177.000 109.000 M182.917 109.500 C 182.860 109.592,182.874 109.668,182.948 109.669 C 183.023 109.671,182.983 109.735,182.860 109.813 C 182.685 109.924,184.037 109.947,184.500 109.841 C 184.546 109.830,184.396 109.714,184.167 109.583 C 183.678 109.304,183.063 109.263,182.917 109.500 M185.375 110.382 C 185.718 110.585,186.043 110.882,186.095 111.044 C 186.148 111.206,186.268 111.290,186.363 111.232 C 186.474 111.163,186.457 111.076,186.314 110.988 C 186.193 110.913,186.143 110.801,186.205 110.739 C 186.366 110.578,185.869 110.125,185.668 110.249 C 185.576 110.306,185.500 110.274,185.500 110.177 C 185.500 110.079,185.331 110.003,185.125 110.007 C 184.808 110.014,184.846 110.071,185.375 110.382 M180.555 111.129 C 180.290 111.298,180.080 112.167,180.304 112.167 C 180.399 112.167,180.525 112.017,180.583 111.834 C 180.641 111.652,180.801 111.389,180.939 111.251 C 181.213 110.977,180.934 110.888,180.555 111.129 M175.205 111.833 C 175.205 112.154,175.240 112.285,175.282 112.125 C 175.323 111.965,175.323 111.702,175.282 111.542 C 175.240 111.381,175.205 111.513,175.205 111.833 M191.319 111.375 C 191.312 111.398,191.287 111.584,191.264 111.789 C 191.241 111.994,191.109 112.294,190.970 112.456 C 190.486 113.019,190.425 113.219,190.797 113.020 C 191.148 112.832,191.764 111.333,191.490 111.333 C 191.404 111.333,191.327 111.352,191.319 111.375 M186.370 112.006 C 186.362 112.278,186.426 112.500,186.511 112.500 C 186.705 112.500,186.718 111.718,186.525 111.599 C 186.447 111.551,186.377 111.734,186.370 112.006 M180.304 112.824 C 180.185 113.589,180.315 114.024,180.646 113.969 C 180.795 113.945,181.029 113.991,181.167 114.073 C 181.304 114.154,181.239 114.026,181.023 113.788 C 180.806 113.550,180.576 113.106,180.511 112.803 L 180.393 112.250 180.304 112.824 M189.855 113.390 C 189.753 113.513,189.725 113.670,189.793 113.740 C 189.861 113.809,189.804 113.842,189.667 113.814 C 189.263 113.732,188.667 114.215,188.667 114.623 C 188.667 114.910,188.762 115.000,189.068 115.000 C 189.365 115.000,189.451 114.925,189.399 114.708 C 189.314 114.352,189.445 114.163,190.047 113.780 C 190.302 113.618,190.466 113.414,190.412 113.326 C 190.275 113.104,190.074 113.127,189.855 113.390 M176.257 113.488 C 176.143 113.673,176.406 113.872,176.560 113.718 C 176.719 113.559,176.689 113.333,176.510 113.333 C 176.424 113.333,176.310 113.403,176.257 113.488 M177.667 113.500 C 177.667 113.592,177.817 113.667,178.000 113.667 C 178.183 113.667,178.333 113.592,178.333 113.500 C 178.333 113.408,178.183 113.333,178.000 113.333 C 177.817 113.333,177.667 113.408,177.667 113.500 M176.667 114.486 C 176.667 114.540,176.892 114.733,177.167 114.917 C 177.491 115.133,177.666 115.391,177.666 115.653 C 177.667 116.212,177.783 116.037,177.898 115.302 C 177.982 114.770,177.945 114.671,177.622 114.564 C 177.133 114.403,176.667 114.364,176.667 114.486 M182.750 115.004 C 183.165 115.177,183.932 115.209,183.768 115.046 C 183.702 114.980,183.371 114.912,183.032 114.895 C 182.565 114.871,182.497 114.898,182.750 115.004 M189.500 117.110 C 189.500 117.677,187.614 118.891,187.269 118.547 C 187.213 118.490,187.167 118.542,187.167 118.661 C 187.167 119.006,188.280 118.747,188.931 118.250 C 189.467 117.841,189.828 117.106,189.603 116.881 C 189.547 116.824,189.500 116.927,189.500 117.110 M177.833 117.612 C 177.526 117.772,177.493 117.829,177.708 117.831 C 177.964 117.833,178.069 118.005,178.027 118.353 C 178.020 118.409,178.344 118.625,178.747 118.832 C 180.016 119.484,181.918 119.129,183.151 118.010 C 183.645 117.560,183.752 117.524,183.984 117.727 C 184.218 117.931,185.273 118.532,185.500 118.591 C 185.546 118.603,185.718 118.671,185.882 118.743 C 186.181 118.875,186.474 118.752,186.293 118.571 C 186.197 118.475,185.767 118.370,185.371 118.346 C 185.254 118.339,185.081 118.130,184.986 117.881 C 184.878 117.596,184.770 117.499,184.695 117.620 C 184.608 117.761,184.427 117.741,184.020 117.543 C 183.503 117.293,183.452 117.294,183.305 117.557 C 183.218 117.713,183.078 117.798,182.995 117.747 C 182.912 117.696,182.749 117.807,182.632 117.994 C 182.515 118.180,182.358 118.333,182.281 118.333 C 182.205 118.333,182.032 118.444,181.896 118.580 C 181.704 118.773,181.340 118.809,180.227 118.747 C 178.608 118.657,178.501 118.618,178.497 118.115 C 178.493 117.515,178.301 117.370,177.833 117.612 " stroke="none" fill="#fba1ad" fill-rule="evenodd"></path><path id="path4" d="M191.000 70.988 C 190.721 71.084,190.942 71.105,191.667 71.054 C 192.423 71.000,193.127 71.075,194.000 71.304 C 195.451 71.685,195.784 71.649,194.475 71.253 C 193.406 70.929,191.578 70.790,191.000 70.988 M198.355 73.325 C 199.046 73.779,199.708 74.266,199.826 74.408 C 199.944 74.550,200.118 74.667,200.213 74.667 C 200.307 74.667,200.204 74.510,199.984 74.319 C 199.441 73.847,197.405 72.500,197.235 72.500 C 197.160 72.500,197.664 72.871,198.355 73.325 M201.741 76.083 C 202.154 76.496,202.546 76.833,202.614 76.833 C 202.681 76.833,202.405 76.496,202.000 76.083 C 201.595 75.671,201.203 75.333,201.128 75.333 C 201.053 75.333,201.329 75.671,201.741 76.083 M203.927 78.541 C 204.196 78.838,204.435 79.113,204.458 79.152 C 204.481 79.191,204.500 79.153,204.500 79.069 C 204.500 78.867,203.749 78.000,203.574 78.000 C 203.499 78.000,203.658 78.243,203.927 78.541 M185.860 80.092 L 185.886 81.750 186.000 80.250 C 186.063 79.425,186.051 78.679,185.974 78.592 C 185.896 78.505,185.845 79.180,185.860 80.092 M186.278 83.331 C 186.368 83.859,186.769 84.667,186.942 84.667 C 186.980 84.667,186.916 84.498,186.799 84.292 C 186.682 84.085,186.495 83.654,186.383 83.333 L 186.180 82.750 186.278 83.331 M185.083 85.452 C 184.900 85.496,184.681 85.597,184.598 85.677 C 184.514 85.757,184.739 85.741,185.098 85.643 C 186.065 85.379,186.053 85.219,185.083 85.452 M193.111 85.444 C 192.889 85.666,193.008 85.833,193.375 85.814 C 193.693 85.798,193.702 85.782,193.434 85.714 C 193.180 85.649,193.164 85.604,193.351 85.486 C 193.479 85.405,193.502 85.337,193.403 85.336 C 193.303 85.334,193.172 85.383,193.111 85.444 M193.959 85.611 C 194.075 85.657,194.131 85.756,194.085 85.830 C 194.039 85.904,194.113 86.008,194.249 86.060 C 194.391 86.115,194.479 86.069,194.456 85.952 C 194.409 85.712,194.149 85.501,193.917 85.516 C 193.825 85.522,193.844 85.564,193.959 85.611 M197.519 87.151 C 197.337 87.267,197.372 87.342,197.686 87.509 C 198.034 87.695,198.058 87.690,197.876 87.470 C 197.763 87.332,197.719 87.170,197.779 87.110 C 197.934 86.955,197.793 86.978,197.519 87.151 M198.262 87.481 C 198.115 87.718,198.596 88.016,198.923 87.891 C 199.144 87.806,199.186 87.834,199.085 87.997 C 198.991 88.149,199.013 88.179,199.152 88.092 C 199.420 87.926,199.227 87.750,198.777 87.750 C 198.578 87.750,198.435 87.657,198.458 87.542 C 198.507 87.300,198.395 87.266,198.262 87.481 M178.437 94.090 C 178.380 94.239,178.342 94.561,178.352 94.805 C 178.367 95.138,178.404 95.083,178.502 94.583 C 178.640 93.875,178.609 93.642,178.437 94.090 M205.833 94.720 C 205.833 94.802,205.941 94.828,206.073 94.777 C 206.204 94.727,206.348 94.775,206.393 94.884 C 206.438 94.996,206.479 94.960,206.487 94.802 C 206.495 94.620,206.383 94.530,206.167 94.546 C 205.983 94.560,205.833 94.638,205.833 94.720 M207.001 96.939 C 206.999 97.248,207.486 98.275,207.493 97.977 C 207.497 97.827,207.388 97.490,207.251 97.227 C 207.114 96.965,207.002 96.835,207.001 96.939 M178.015 101.097 C 178.023 103.106,178.083 105.125,178.149 105.583 C 178.215 106.042,178.236 104.429,178.197 102.000 C 178.157 99.571,178.097 97.552,178.062 97.514 C 178.028 97.476,178.007 99.088,178.015 101.097 M187.734 100.859 C 187.655 100.987,187.689 101.006,187.836 100.915 C 187.995 100.817,188.028 100.854,187.953 101.048 C 187.883 101.232,187.923 101.289,188.081 101.228 C 188.208 101.179,188.271 101.033,188.222 100.903 C 188.112 100.617,187.896 100.598,187.734 100.859 M188.500 101.856 C 188.500 102.141,189.832 103.268,189.986 103.114 C 190.105 102.995,190.276 103.040,190.538 103.261 C 190.888 103.556,190.886 103.546,190.513 103.124 C 190.129 102.689,189.698 102.479,189.917 102.833 C 190.146 103.204,189.726 102.963,189.132 102.383 C 188.784 102.043,188.500 101.806,188.500 101.856 M216.854 102.670 C 217.106 103.417,217.248 103.562,217.095 102.917 C 217.030 102.642,216.905 102.343,216.817 102.254 C 216.729 102.164,216.746 102.352,216.854 102.670 M217.178 103.782 C 217.216 104.214,217.477 104.581,217.488 104.218 C 217.495 104.017,217.425 103.807,217.333 103.750 C 217.242 103.693,217.172 103.708,217.178 103.782 M192.667 104.675 C 193.245 105.067,193.574 105.181,193.167 104.848 C 192.938 104.661,192.675 104.507,192.583 104.506 C 192.492 104.506,192.529 104.581,192.667 104.675 M191.833 104.747 C 191.833 104.830,193.007 105.480,193.583 105.716 C 194.122 105.936,193.666 105.587,192.786 105.104 C 191.972 104.658,191.833 104.606,191.833 104.747 M217.602 105.083 C 217.739 105.696,217.834 105.829,217.831 105.403 C 217.829 105.227,217.752 104.971,217.659 104.833 C 217.536 104.651,217.520 104.718,217.602 105.083 M180.357 105.839 C 180.120 106.036,180.054 106.167,180.191 106.167 C 180.317 106.167,180.513 106.017,180.628 105.833 C 180.884 105.424,180.854 105.424,180.357 105.839 M194.795 106.260 C 195.279 106.498,195.762 106.663,195.870 106.627 C 196.040 106.570,195.589 106.378,194.250 105.938 C 194.067 105.878,194.312 106.023,194.795 106.260 M195.253 106.004 C 195.294 106.072,195.515 106.162,195.742 106.206 C 195.970 106.250,196.122 106.230,196.081 106.162 C 196.039 106.095,195.819 106.004,195.591 105.961 C 195.363 105.917,195.211 105.937,195.253 106.004 M199.796 106.956 C 200.188 106.991,200.788 106.990,201.129 106.954 C 201.471 106.919,201.150 106.890,200.417 106.890 C 199.683 106.891,199.404 106.920,199.796 106.956 M198.958 107.284 C 199.165 107.324,199.502 107.324,199.708 107.284 C 199.915 107.245,199.746 107.212,199.333 107.212 C 198.921 107.212,198.752 107.245,198.958 107.284 M178.690 107.848 C 178.473 108.023,178.365 108.167,178.450 108.167 C 178.673 108.167,179.264 107.709,179.166 107.611 C 179.121 107.566,178.906 107.672,178.690 107.848 M218.168 107.643 C 218.167 107.767,219.156 108.855,220.366 110.060 C 221.576 111.264,222.232 111.886,221.825 111.440 C 221.417 110.995,220.567 110.118,219.935 109.492 C 219.303 108.866,218.648 108.143,218.478 107.885 C 218.308 107.628,218.168 107.518,218.168 107.643 M191.206 112.926 C 191.001 113.239,190.833 113.551,190.833 113.620 C 190.833 113.688,191.028 113.458,191.265 113.109 C 191.502 112.760,191.670 112.448,191.638 112.416 C 191.606 112.383,191.412 112.613,191.206 112.926 M190.123 114.090 C 189.872 114.323,189.671 114.642,189.677 114.798 C 189.685 115.007,189.729 114.982,189.840 114.705 C 189.924 114.496,190.100 114.284,190.233 114.233 C 190.366 114.183,190.515 114.034,190.565 113.904 C 190.688 113.584,190.653 113.599,190.123 114.090 M175.329 114.797 C 174.719 115.535,174.636 115.714,175.099 115.292 C 175.736 114.711,175.856 114.717,176.596 115.367 C 177.069 115.782,177.191 115.832,177.144 115.593 C 177.111 115.424,176.937 115.203,176.757 115.101 C 176.578 115.000,176.328 114.823,176.203 114.708 C 175.889 114.420,175.617 114.448,175.329 114.797 M225.340 115.510 C 225.540 115.790,225.740 115.983,225.785 115.938 C 225.888 115.834,225.296 115.012,225.114 115.005 C 225.039 115.002,225.141 115.229,225.340 115.510 M226.530 117.417 C 226.635 117.646,226.776 117.833,226.844 117.833 C 226.913 117.833,226.882 117.646,226.776 117.418 C 226.670 117.190,226.529 117.002,226.462 117.001 C 226.395 117.001,226.426 117.188,226.530 117.417 M182.840 118.516 C 182.522 118.782,182.335 118.997,182.423 118.994 C 182.641 118.986,183.590 118.200,183.493 118.107 C 183.451 118.066,183.157 118.250,182.840 118.516 M183.973 118.446 C 184.059 118.599,184.231 118.742,184.356 118.763 C 184.481 118.784,184.727 118.859,184.902 118.929 C 185.126 119.019,185.186 118.999,185.101 118.862 C 185.035 118.754,184.904 118.667,184.812 118.667 C 184.719 118.667,184.530 118.554,184.393 118.417 C 184.049 118.072,183.775 118.091,183.973 118.446 M177.826 118.908 C 178.066 119.197,179.085 119.556,179.376 119.455 C 179.490 119.416,179.325 119.325,179.009 119.255 C 178.694 119.184,178.332 119.023,178.206 118.896 C 177.893 118.584,177.565 118.594,177.826 118.908 M227.511 119.250 C 227.512 119.544,227.988 120.273,227.994 119.990 C 227.997 119.847,227.890 119.585,227.755 119.407 C 227.621 119.229,227.511 119.158,227.511 119.250 M200.214 120.457 C 200.745 120.490,201.570 120.490,202.048 120.456 C 202.526 120.422,202.092 120.395,201.083 120.396 C 200.075 120.396,199.684 120.424,200.214 120.457 M203.708 120.456 C 204.144 120.490,204.856 120.490,205.292 120.456 C 205.727 120.422,205.371 120.393,204.500 120.393 C 203.629 120.393,203.273 120.422,203.708 120.456 M228.370 121.288 C 228.576 121.851,228.774 122.281,228.812 122.243 C 228.899 122.157,228.341 120.640,228.143 120.424 C 228.063 120.336,228.165 120.725,228.370 121.288 M196.500 120.667 C 195.938 120.785,195.935 120.790,196.417 120.792 C 196.692 120.793,197.142 120.737,197.417 120.667 C 198.108 120.491,197.336 120.491,196.500 120.667 M194.750 121.000 C 194.301 121.114,194.292 121.128,194.667 121.130 C 194.896 121.132,195.271 121.073,195.500 121.000 C 196.060 120.821,195.455 120.821,194.750 121.000 M191.523 121.858 C 191.215 121.946,190.995 122.050,191.033 122.088 C 191.117 122.172,192.333 121.849,192.333 121.742 C 192.333 121.644,192.201 121.663,191.523 121.858 M189.417 122.744 C 189.142 122.870,189.034 122.979,189.176 122.986 C 189.319 122.994,189.582 122.890,189.760 122.755 C 190.162 122.451,190.063 122.448,189.417 122.744 M187.775 123.528 C 187.239 123.800,186.834 124.056,186.876 124.098 C 186.934 124.156,188.228 123.563,188.819 123.208 C 189.319 122.908,188.505 123.157,187.775 123.528 M186.238 124.413 C 186.061 124.547,185.992 124.657,186.083 124.659 C 186.331 124.663,186.754 124.365,186.650 124.261 C 186.600 124.211,186.414 124.279,186.238 124.413 M229.452 125.167 C 229.503 125.763,229.572 126.281,229.605 126.319 C 229.717 126.446,229.630 125.093,229.494 124.583 C 229.409 124.268,229.394 124.484,229.452 125.167 M185.250 125.096 L 184.750 125.523 185.292 125.226 C 185.590 125.062,185.833 124.869,185.833 124.797 C 185.833 124.608,185.801 124.624,185.250 125.096 M183.083 126.770 L 182.250 127.534 183.167 126.817 C 183.671 126.422,184.115 126.077,184.153 126.050 C 184.191 126.022,184.153 126.002,184.069 126.003 C 183.985 126.005,183.542 126.350,183.083 126.770 M170.045 127.667 C 170.045 128.079,170.078 128.248,170.118 128.042 C 170.157 127.835,170.157 127.498,170.118 127.292 C 170.078 127.085,170.045 127.254,170.045 127.667 M170.052 129.583 C 170.053 130.133,170.084 130.338,170.121 130.039 C 170.158 129.739,170.157 129.289,170.119 129.039 C 170.081 128.788,170.051 129.033,170.052 129.583 M179.839 130.489 C 179.628 130.884,179.618 131.050,179.813 130.929 C 179.960 130.838,180.190 130.167,180.074 130.167 C 180.040 130.167,179.934 130.312,179.839 130.489 M170.017 131.431 C 170.026 131.790,170.095 132.271,170.170 132.500 C 170.255 132.759,170.271 132.538,170.213 131.917 C 170.106 130.759,169.992 130.479,170.017 131.431 M179.411 131.583 C 179.368 131.721,179.297 131.950,179.252 132.092 C 179.207 132.234,179.236 132.310,179.315 132.261 C 179.395 132.212,179.496 131.983,179.540 131.752 C 179.627 131.297,179.538 131.179,179.411 131.583 M179.020 132.667 C 179.007 132.804,178.954 133.104,178.903 133.333 C 178.823 133.693,178.836 133.710,178.999 133.454 C 179.104 133.290,179.156 132.990,179.117 132.787 C 179.078 132.583,179.034 132.529,179.020 132.667 M170.441 134.000 C 170.573 134.719,170.668 134.854,170.664 134.319 C 170.663 134.098,170.588 133.804,170.498 133.667 C 170.382 133.491,170.366 133.590,170.441 134.000 M224.545 135.667 C 224.545 136.079,224.578 136.248,224.618 136.042 C 224.657 135.835,224.657 135.498,224.618 135.292 C 224.578 135.085,224.545 135.254,224.545 135.667 M178.545 136.000 C 178.545 136.412,178.578 136.581,178.618 136.375 C 178.657 136.169,178.657 135.831,178.618 135.625 C 178.578 135.419,178.545 135.587,178.545 136.000 M224.185 138.019 C 224.083 138.313,224.028 138.583,224.063 138.619 C 224.099 138.655,224.212 138.443,224.315 138.148 C 224.417 137.854,224.472 137.583,224.437 137.548 C 224.401 137.512,224.288 137.724,224.185 138.019 M226.446 138.791 C 226.124 139.226,225.891 139.614,225.930 139.652 C 225.968 139.691,226.020 139.691,226.044 139.653 C 226.069 139.615,226.336 139.227,226.638 138.792 C 227.351 137.765,227.206 137.764,226.446 138.791 M178.936 139.083 C 179.139 139.978,179.831 141.383,180.517 142.292 C 181.280 143.303,181.297 143.698,180.581 143.861 C 180.099 143.971,180.102 143.973,180.667 143.945 C 181.487 143.905,181.542 143.357,180.817 142.455 C 180.219 141.710,179.169 139.728,179.165 139.333 C 179.163 139.196,179.085 138.971,178.992 138.833 C 178.869 138.651,178.854 138.719,178.936 139.083 M225.000 140.583 C 224.595 140.996,224.301 141.333,224.347 141.333 C 224.393 141.333,224.762 140.996,225.167 140.583 C 225.572 140.171,225.865 139.833,225.819 139.833 C 225.774 139.833,225.405 140.171,225.000 140.583 M222.991 140.940 C 222.899 141.182,222.855 141.410,222.893 141.448 C 222.931 141.486,223.041 141.288,223.139 141.009 C 223.355 140.387,223.225 140.326,222.991 140.940 M223.666 141.604 L 223.250 141.847 223.667 141.736 C 224.131 141.613,224.256 141.534,224.153 141.430 C 224.114 141.392,223.895 141.470,223.666 141.604 M178.333 143.139 C 178.333 143.206,178.685 143.392,179.115 143.551 C 180.032 143.891,179.963 143.746,179.002 143.316 C 178.634 143.151,178.333 143.071,178.333 143.139 " stroke="none" fill="#bb4f6b" fill-rule="evenodd"></path></g></svg>