<?xml version="1.0" encoding="utf-8"?>
<!-- Generator: Adobe Illustrator 24.0.1, SVG Export Plug-In . SVG Version: 6.00 Build 0)  -->
<svg version="1.1" id="Layer_1" xmlns="http://www.w3.org/2000/svg" xmlns:xlink="http://www.w3.org/1999/xlink" x="0px" y="0px"
	 viewBox="0 0 500 500" style="enable-background:new 0 0 500 500;" xml:space="preserve">
<style type="text/css">
	.st0{fill:#FCD004;}
	.st1{fill:#E87EA7;}
	.st2{fill:#FFFFFF;}
</style>
<g>
	<path d="M405.8275146,251.1845703c-2.2644653,8.795105-7.8758545,16.539856-15.8007813,21.8077393
		c-7.666687,5.0960693-17.1882324,7.7055664-26.81073,7.3473511c-0.0936279-0.003479-0.1882935-0.0105591-0.2821045-0.0146484
		c7.9252319,9.3735962,14.263916,20.9770508,18.4783936,33.9320679c4.878418,14.99646,6.7047119,31.1019897,5.2820435,46.5757446
		c-2.5564575,27.8079224-15.2321777,50.9785156-35.6915894,65.2435303
		c-8.0653687,5.6233521-18.0493164,10.3306274-29.4863281,14.0273438c-0.0117188,0.0063477-0.0228271,0.0130615-0.0344849,0.0194092
		c-0.3010254,0.1647339-0.6206055,0.2594604-0.9417725,0.2985229c-19.8962402,6.2843628-44.1098022,9.5307007-70.3250122,9.1948853
		c-21.2385254-0.2723389-42.0872803-2.9083252-60.0812988-7.3494263c-0.1509399-0.0143433-0.3018188-0.0414429-0.4510498-0.0829468
		c-0.0685425-0.0189819-0.1341553-0.053772-0.2017822-0.0786743c-1.6882935-0.4224854-3.3603516-0.8548584-4.9952393-1.3088989
		c-12.0274048-3.3397827-22.548645-7.5211182-30.7512817-12.3651733
		c-23.3074951-13.7642212-38.107048-30.0393677-45.2448044-49.7557983
		c-7.895813-21.8121948-6.2610474-47.2113647,4.992981-77.6329956c-0.3104248-0.4770508-0.5865479-0.9320679-0.8234253-1.3500366
		c-7.1668701-12.6495361-4.456665-30.0136719,5.9974976-40.7808838
		c-21.7182007-21.9037476-30.7095337-47.4467773-24.6934814-70.432373
		c4.2839355-16.3666992,16.192627-28.9515381,31.0784912-32.8428955
		c15.6932297-4.1025391,32.1606369,1.3890991,46.6053391,15.4647217
		c14.7277832-36.5898438,35.2191772-67.3154297,59.4168091-89.0383301
		c21.588562-19.3804893,44.8842773-30.6140099,65.5958862-31.6317101
		c17.3676147-0.8536987,31.0360718,5.9934692,37.4996338,18.7862511
		c9.9265747,19.6467896,2.3643188,49.6365356-20.7059937,84.432251c25.5505371-5.909668,49.2611084,0.1275024,67.3748169,17.348877
		C402.0749512,191.1999512,412.5889893,224.9230957,405.8275146,251.1845703z"/>
	<path d="M203.6212769,377.9649658c-1.4404907,10.1105957-8.3917236,17.4829102-15.5262451,16.4664917
		c-7.1345825-1.0163574-11.7506104-10.0366821-10.3102417-20.1472778
		c1.4404907-10.1106567,8.3918457-17.4829712,15.5264282-16.4664917
		C200.4457397,358.8341064,205.0617676,367.8543701,203.6212769,377.9649658z M314.3088379,355.7116089
		c-7.0199585,1.6292725-10.8391113,11.0147095-8.5302124,20.9630127s9.871521,16.6921997,16.8915405,15.0629883
		c7.0199585-1.6292725,10.8389282-11.0148315,8.5300293-20.9631348
		C328.8912964,360.8262329,321.3288574,354.0823364,314.3088379,355.7116089z M270.5197144,407.3977051
		c-1.145752,1.2350464-5.3969116,5.272583-12.0127563,5.3861694c-7.1565552,0.1229858-11.7918701-4.5162354-12.6473389-5.4473877
		c-0.9825439-1.067749-2.6419678-1.1369019-3.7099609-0.1556396c-1.0675049,0.9813843-1.137085,2.6424561-0.1557007,3.7099609
		c1.1915894,1.2956543,4.8226929,4.7962036,10.4759521,6.366333c1.8341064,0.5093994,3.881897,0.8153076,6.126709,0.7770386
		c8.6925049-0.149292,14.2706909-5.4459229,15.7728271-7.0655518c0.9863892-1.0632935,0.9234619-2.7245483-0.1394043-3.7103271
		C273.1670532,406.270752,271.5061646,406.3344116,270.5197144,407.3977051z M248.1956787,393.7494507
		c0.1304321-4.9863892,5.5610962-8.9051514,12.1064453-8.7347412c3.0880737,0.0813599,5.9838867,1.045166,8.1572876,2.7155151
		c2.3085327,1.7756348,3.5442505,4.1328125,3.4784546,6.6378174c-0.0649414,2.5040894-1.4212646,4.7935181-3.819458,6.4468384
		c-2.2563477,1.5552979-5.1995239,2.3673096-8.2866821,2.2868042c-1.2889404-0.0333862-2.5255127-0.2232666-3.6806641-0.5440674
		C251.4385376,401.2487793,248.0918579,397.7545776,248.1956787,393.7494507z M251.1119995,393.8250732
		c-0.0877686,3.3790894,3.8557129,6.2321167,8.7953491,6.3603516c2.4753418,0.0647583,4.8033447-0.5647583,6.5552368-1.7724609
		c1.6101685-1.1101685,2.5193481-2.5734863,2.5592041-4.1210938c0.0405273-1.5479736-0.7912598-3.0568237-2.3409424-4.2491455
		c-1.6873169-1.2971191-3.9804688-2.0479736-6.4543457-2.1116943
		C255.2886963,387.8026733,251.2001343,390.4467773,251.1119995,393.8250732z M405.8275146,251.1845703
		c-2.2644653,8.795105-7.8758545,16.539856-15.8007813,21.8077393c-7.666687,5.0960693-17.1882324,7.7055664-26.81073,7.3473511
		c-0.0936279-0.003479-0.1882935-0.0105591-0.2821045-0.0146484c7.9252319,9.3735962,14.263916,20.9770508,18.4783936,33.9320679
		c4.878418,14.99646,6.7047119,31.1019897,5.2820435,46.5757446c-2.5564575,27.8079224-15.2321777,50.9785156-35.6915894,65.2435303
		c-8.0653687,5.6233521-18.0493164,10.3306274-29.4863281,14.0273438c-0.0117188,0.0063477-0.0228271,0.0130615-0.0344849,0.0194092
		c-0.3010254,0.1647339-0.6206055,0.2594604-0.9417725,0.2985229c-19.8962402,6.2843628-44.1098022,9.5307007-70.3250122,9.1948853
		c-21.2385254-0.2723389-42.0872803-2.9083252-60.0812988-7.3494263c-0.1509399-0.0143433-0.3018188-0.0414429-0.4510498-0.0829468
		c-0.0685425-0.0189819-0.1341553-0.053772-0.2017822-0.0786743c-1.6882935-0.4224854-3.3603516-0.8548584-4.9952393-1.3088989
		c-12.0274048-3.3397827-22.548645-7.5211182-30.7512817-12.3651733
		c-23.3074951-13.7642212-38.107048-30.0393677-45.2448044-49.7557983
		c-7.895813-21.8121948-6.2610474-47.2113647,4.992981-77.6329956c-0.3104248-0.4770508-0.5865479-0.9320679-0.8234253-1.3500366
		c-7.1668701-12.6495361-4.456665-30.0136719,5.9974976-40.7808838
		c-21.7182007-21.9037476-30.7095337-47.4467773-24.6934814-70.432373
		c4.2839355-16.3666992,16.192627-28.9515381,31.0784912-32.8428955
		c15.6932297-4.1025391,32.1606369,1.3890991,46.6053391,15.4647217
		c14.7277832-36.5898438,35.2191772-67.3154297,59.4168091-89.0383301
		c21.588562-19.3804893,44.8842773-30.6140099,65.5958862-31.6317101
		c17.3676147-0.8536987,31.0360718,5.9934692,37.4996338,18.7862511
		c9.9265747,19.6467896,2.3643188,49.6365356-20.7059937,84.432251c25.5505371-5.909668,49.2611084,0.1275024,67.3748169,17.348877
		C402.0749512,191.1999512,412.5889893,224.9230957,405.8275146,251.1845703z M175.6473999,175.2622681
		c14.043457,15.515625,22.0852661,34.1489868,23.5112915,53.6732178c2.6953735-0.9316406,5.4678955-1.1294556,8.1813965-0.5585938
		c0.4049072,0.0848999,0.8005981,0.1921997,1.1918945,0.3095093c4.9260864-18.4293213,13.3120728-33.9102173,24.3695068-44.901001
		c10.1071167-10.046814,22.4144287-16.2819214,34.6550903-17.5570068
		c9.9163818-1.0328369,18.9125977,1.2070923,25.6849365,6.0717163
		c17.8910522-22.2620239,29.9725952-42.784668,35.8891602-61.0183105c5.218689-16.0837402,5.3366699-29.81073,0.34198-39.6965942
		c-5.5670776-11.0179405-17.1293335-16.6675377-32.5553589-15.9096642
		c-19.2275391,0.9448242-41.9517212,11.9866905-62.3455811,30.294857
		C210.4873047,107.5913086,190.1369019,138.4445801,175.6473999,175.2622681z M269.7376709,253.5372925
		c25.6112061-25.7313232,36.135498-51.0682983,28.1518555-67.7758179
		c-4.8891602-10.2315063-16.3033447-15.7145996-29.7886963-14.3103638
		c-11.0519409,1.151062-22.2383423,6.8540039-31.4976807,16.0581665
		c-10.6210327,10.5579224-18.6467896,25.6328735-23.2907715,43.6633911c2.2364502,1.762085,4.0533447,4.2246704,5.3197632,7.2723389
		c0.1343384,0.3230591,0.2610474,0.6514893,0.3814697,0.9841919c0.7716064-0.4978027,1.5602417-0.9747314,2.380249-1.4116821
		c1.8193359-0.9603271,3.7440186-1.7792969,5.7876587-2.3257446c2.0390625-0.5455933,4.2049561-0.8112183,6.3858643-0.6350708
		c2.1785889,0.1530762,4.3568726,0.8477783,6.2637329,1.9966431c0.8966675,0.5402832,1.1855469,1.7051392,0.6453857,2.6018677
		c-0.5128174,0.8511963-1.5886841,1.1547241-2.4634399,0.7211914l-0.0819092-0.0409546
		c-1.4048462-0.7011108-2.96875-1.1000977-4.5864868-1.0931396c-1.6133423-0.0130615-3.2543945,0.296814-4.8446045,0.8468018
		c-1.5925293,0.5493164-3.1338501,1.3326416-4.6112671,2.2497559c-1.2396851,0.7763062-2.416626,1.680481-3.5635376,2.6282349
		c0.4423828,3.4596558,0.2832642,7.1791992-0.5037231,10.9174805c-1.0866699,5.1606445-3.1812744,9.5967407-5.9107666,12.9907227
		c4.2732544,13.9741821,14.8554688,23.9000854,28.553833,26.6702271
		c10.9391479,2.2144165,21.5685425-0.8910522,27.0782471-7.9110718c5.7739258-7.355835,5.659668-18.4104614-0.3203125-31.1277466
		C268.7526245,255.5071411,268.9580688,254.3202515,269.7376709,253.5372925z M214.6831055,254.8024292
		c1.0977173-5.211853,0.7779541-10.305603-0.8996582-14.342041c-1.1139526-2.6812134-3.322937-6.0574341-7.5236816-6.9451294
		c-2.2445679-0.4718628-4.5959473-0.1124268-6.8743896,1.0195923c0.0599976,7.3731689-0.8131714,14.8411255-2.6613159,22.2872925
		c-0.9244995,3.7245483-2.0874634,7.3638306-3.4614868,10.8908691c1.493042,1.5180054,3.2583618,2.5300293,5.1818237,2.9348755
		c3.7280884,0.7848511,7.4387207-0.7554321,10.4343872-3.9380493c0.1126709-0.1555786,0.2401733-0.2987671,0.385498-0.4271851
		C211.7438965,263.4714355,213.6919556,259.5098877,214.6831055,254.8024292z M117.2278519,297.1043701
		c5.7979126,10.2319336,17.9209518,13.2167358,33.263176,8.1853638
		c19.0402832-6.2432861,35.187561-25.7644653,41.1362915-49.7324829c0.2822266-1.137085,0.5316162-2.2747803,0.765686-3.4125366
		c-1.3811646-1.9830322-2.7988892-3.9486084-4.4215088-5.6918945c-1.7388306-1.9244385-3.6210938-3.7179565-5.7122803-5.1190796
		c-2.0759277-1.4039917-4.3380737-2.5183105-6.6751709-2.9393311c-0.5819702-0.0749512-1.168396-0.2040405-1.7471313-0.1891479
		c-0.2885742,0.0016479-0.5858154-0.046936-0.8693848-0.0099487l-0.8587036,0.0703125
		c-1.1279907,0.1642456-2.220459,0.4914551-3.2053833,1.0220947l-0.0584106,0.0314941
		c-0.9216919,0.496582-2.0714722,0.1519165-2.5680542-0.7697754c-0.479126-0.8892822-0.1704102-1.9937134,0.6794434-2.5160522
		c1.4003296-0.8568726,2.9514771-1.4088135,4.5322876-1.7112427l1.192627-0.1585083
		c0.3989868-0.0617065,0.7935181-0.0324097,1.1918335-0.0498657c0.8013916-0.0456543,1.576355,0.0672607,2.3617554,0.1399536
		c3.1213379,0.4146729,5.9645996,1.6765747,8.5109863,3.2210693c2.56427,1.550415,4.7931519,3.4849854,6.8417358,5.5395508
		c0.6853027,0.6709595,1.3285522,1.3721313,1.956665,2.0840454c0.4700928-3.9327393,0.6495361-7.854248,0.5574951-11.7467651
		c-0.0204468-0.1658325-0.0254517-0.3312378-0.0141602-0.4962769c-0.6131592-20.5976563-9.0130005-40.3342896-24.4129028-56.2990723
		c-7.7120361-7.9951172-16.0411987-13.2583008-24.4576416-15.5957642
		c-6.3076782-1.7518921-12.6638184-1.8604736-18.8469772-0.2438965
		c-13.0524902,3.4118652-23.5228882,14.5595093-27.3269653,29.0922852
		c-5.6985474,21.7733765,3.491394,46.2860107,25.2143555,67.2524414c0.5297241,0.5119019,0.8206787,1.2225952,0.8009033,1.9592285
		s-0.3483276,1.4313354-0.9047241,1.9139404C114.0141068,269.7223511,110.9073563,285.947998,117.2278519,297.1043701z
		 M355.286499,384.7415161c-0.1974487-17.2009277-10.7330322-33.3321533-29.664917-45.4234009
		c-19.2774658-12.3114014-44.8477173-18.9198608-71.9993286-18.6052246
		c-55.6429443,0.6400757-100.5765991,30.40802-100.1638184,66.3567505
		c0.229126,19.7199097,14.1218872,38.0332031,38.1152344,50.2438965c0.0123291,0.0062256,0.0220947,0.0155029,0.0342407,0.0219727
		c38.8181152,9.5419922,90.2769775,9.8105469,127.9663086-2.1638794
		C342.4992676,422.4310913,355.5093384,404.0834351,355.286499,384.7415161z M377.2095947,174.8040161
		c-18.1088257-17.2185669-42.3416138-22.350647-68.3123169-14.5078125
		c-3.5775757,5.0586548-7.475647,10.2094116-11.6768799,15.4342041c2.1813965,2.24646,4.0102539,4.8441162,5.4068604,7.7670898
		c4.2664795,8.9285889,9.9776001,33.734314-27.892334,72.4511719c6.0900879,13.9237671,5.7301636,26.2751465-1.0615234,34.9279785
		c-6.8278809,8.6990967-19.1854858,12.4602051-32.2506104,9.8154907c-1.0195923-0.2063599-2.0264893-0.4475708-3.0145264-0.7219849
		c-13.3511963-3.7080688-23.742981-13.5350342-28.6811523-27.0662842
		c-3.6972656,2.6791382-8.0006714,3.8010864-12.3648682,2.8825073c-0.3065796-0.0647583-0.6105347-0.1389771-0.9113159-0.2225342
		c-1.937439-0.5380859-3.7407227-1.4714966-5.359436-2.7501221c-2.9784546,6.4105225-6.694458,12.3574829-11.0432129,17.619873
		c-7.9282227,9.5934448-17.5828247,16.4558105-27.9217529,19.8458862c-10.1282959,3.3208008-17.90979,3.2702026-23.819397,1.6295166
		c-4.7935715-1.3309937-8.3460617-3.7093506-10.9340134-6.1826172
		c-18.9564819,53.6777344-6.5043335,91.2918091,39.0316696,118.184021
		c4.7843628,2.8251953,10.2875366,5.3834229,16.3422852,7.6605835
		c-15.5935059-12.2807617-24.3462524-27.8510742-24.5393677-44.4406128
		c-0.2183838-19.0305786,10.7681885-36.9703369,30.9359131-50.5155029
		c19.828125-13.31604,46.256897-20.8284912,74.4178467-21.1526489c28.1621704-0.3262329,54.7563477,6.5744629,74.8862305,19.4303589
		c20.4743042,13.076355,31.8709106,30.7581787,32.0894775,49.788208
		c0.1726074,15.0123901-6.7102051,29.3829346-19.3943481,41.3592529c2.4060669-1.3457642,4.6990967-2.7669678,6.8567505-4.2713623
		c19.168396-13.3643188,31.0533447-35.1761475,33.4661255-61.416687c2.7653809-30.076416-7.6378784-61.8678589-26.5036011-80.992981
		c-0.0258789-0.0261841-0.0432129-0.0571289-0.0678101-0.0841064c-0.8723145-0.1907349-1.7466431-0.4052124-2.6217041-0.6481323
		c-18.6444092-5.1769409-37.6635132-22.3846436-44.1060791-58.2799072
		c-0.2557373-1.4271851,0.6931763-2.7918701,2.1207275-3.0477905c1.4251709-0.2560425,2.791748,0.6925049,3.0479736,2.1201782
		c7.1681519,39.9402466,30.5675049,54.9463501,50.0759277,55.6729736
		c17.9849243,0.6694336,33.3362427-9.7000122,37.3313599-25.2167358
		C407.0579224,225.3453979,397.1612549,193.7735596,377.2095947,174.8040161z"/>
	<path class="st0" d="M269.0217896,394.2918701c-0.039856,1.5476074-0.9490356,3.0109253-2.5592041,4.1210938
		c-1.7518921,1.2077026-4.079895,1.8372192-6.5552368,1.7724609c-4.9396362-0.1282349-8.8831177-2.9812622-8.7953491-6.3603516
		c0.0881348-3.3782959,4.1766968-6.0223999,9.114502-5.894043c2.473877,0.0637207,4.7670288,0.8145752,6.4543457,2.1116943
		C268.2305298,391.2350464,269.0623169,392.7438965,269.0217896,394.2918701z"/>
	<path class="st0" d="M187.9714966,246.4528198c1.6226196,1.7432861,3.0403442,3.7088623,4.4215088,5.6918945
		c-0.2340698,1.1377563-0.4834595,2.2754517-0.765686,3.4125366c-5.9487305,23.9680176-22.0960083,43.4891968-41.1362915,49.7324829
		c-15.3422241,5.0313721-27.4652634,2.0465698-33.263176-8.1853638c-6.3204956-11.1563721-3.2137451-27.382019,6.9258423-36.1698608
		c0.5563965-0.482605,0.8849487-1.1773071,0.9047241-1.9139404s-0.2711792-1.4473267-0.8009033-1.9592285
		c-21.7229614-20.9664307-30.9129028-45.4790649-25.2143555-67.2524414
		c3.8040771-14.5327759,14.2744751-25.6804199,27.3269653-29.0922852c6.1831589-1.6165771,12.539299-1.5079956,18.8469772,0.2438965
		c8.4164429,2.3374634,16.7456055,7.600647,24.4576416,15.5957642
		c15.3999023,15.9647827,23.7997437,35.701416,24.4129028,56.2990723c-0.0112915,0.1650391-0.0062866,0.3304443,0.0141602,0.4962769
		c0.092041,3.8925171-0.0874023,7.8140259-0.5574951,11.7467651c-0.6281128-0.7119141-1.2713623-1.4130859-1.956665-2.0840454
		c-2.048584-2.0545654-4.2774658-3.9891357-6.8417358-5.5395508c-2.5463867-1.5444946-5.3896484-2.8063965-8.5109863-3.2210693
		c-0.7854004-0.0726929-1.5603638-0.1856079-2.3617554-0.1399536c-0.3983154,0.0174561-0.7928467-0.0118408-1.1918335,0.0498657
		l-1.192627,0.1585083c-1.5808105,0.3024292-3.131958,0.8543701-4.5322876,1.7112427
		c-0.8498535,0.5223389-1.1585693,1.62677-0.6794434,2.5160522c0.496582,0.9216919,1.6463623,1.2663574,2.5680542,0.7697754
		l0.0584106-0.0314941c0.9849243-0.5306396,2.0773926-0.8578491,3.2053833-1.0220947l0.8587036-0.0703125
		c0.2835693-0.0369873,0.5808105,0.0115967,0.8693848,0.0099487c0.5787354-0.0148926,1.1651611,0.1141968,1.7471313,0.1891479
		c2.3370972,0.4210205,4.5992432,1.5353394,6.6751709,2.9393311
		C184.3504028,242.7348633,186.232666,244.5283813,187.9714966,246.4528198z M213.7834473,240.4603882
		c-1.1139526-2.6812134-3.322937-6.0574341-7.5236816-6.9451294c-2.2445679-0.4718628-4.5959473-0.1124268-6.8743896,1.0195923
		c0.0599976,7.3731689-0.8131714,14.8411255-2.6613159,22.2872925c-0.9244995,3.7245483-2.0874634,7.3638306-3.4614868,10.8908691
		c1.493042,1.5180054,3.2583618,2.5300293,5.1818237,2.9348755c3.7280884,0.7848511,7.4387207-0.7554321,10.4343872-3.9380493
		c0.1126709-0.1555786,0.2401733-0.2987671,0.385498-0.4271851c2.4796143-2.8112183,4.4276733-6.7727661,5.4188232-11.4802246
		C215.7808228,249.5905762,215.4610596,244.4968262,213.7834473,240.4603882z M269.7376709,253.5372925
		c25.6112061-25.7313232,36.135498-51.0682983,28.1518555-67.7758179
		c-4.8891602-10.2315063-16.3033447-15.7145996-29.7886963-14.3103638
		c-11.0519409,1.151062-22.2383423,6.8540039-31.4976807,16.0581665
		c-10.6210327,10.5579224-18.6467896,25.6328735-23.2907715,43.6633911c2.2364502,1.762085,4.0533447,4.2246704,5.3197632,7.2723389
		c0.1343384,0.3230591,0.2610474,0.6514893,0.3814697,0.9841919c0.7716064-0.4978027,1.5602417-0.9747314,2.380249-1.4116821
		c1.8193359-0.9603271,3.7440186-1.7792969,5.7876587-2.3257446c2.0390625-0.5455933,4.2049561-0.8112183,6.3858643-0.6350708
		c2.1785889,0.1530762,4.3568726,0.8477783,6.2637329,1.9966431c0.8966675,0.5402832,1.1855469,1.7051392,0.6453857,2.6018677
		c-0.5128174,0.8511963-1.5886841,1.1547241-2.4634399,0.7211914l-0.0819092-0.0409546
		c-1.4048462-0.7011108-2.96875-1.1000977-4.5864868-1.0931396c-1.6133423-0.0130615-3.2543945,0.296814-4.8446045,0.8468018
		c-1.5925293,0.5493164-3.1338501,1.3326416-4.6112671,2.2497559c-1.2396851,0.7763062-2.416626,1.680481-3.5635376,2.6282349
		c0.4423828,3.4596558,0.2832642,7.1791992-0.5037231,10.9174805c-1.0866699,5.1606445-3.1812744,9.5967407-5.9107666,12.9907227
		c4.2732544,13.9741821,14.8554688,23.9000854,28.553833,26.6702271
		c10.9391479,2.2144165,21.5685425-0.8910522,27.0782471-7.9110718c5.7739258-7.355835,5.659668-18.4104614-0.3203125-31.1277466
		C268.7526245,255.5071411,268.9580688,254.3202515,269.7376709,253.5372925z"/>
	<path class="st1" d="M199.1586914,228.9354858c-1.4260254-19.524231-9.4678345-38.1575928-23.5112915-53.6732178
		c14.489502-36.817688,34.8399048-67.6709595,58.9243164-89.2918701
		c20.3938599-18.3081665,43.118042-29.3500328,62.3455811-30.294857
		c15.4260254-0.7578735,26.9882813,4.8917236,32.5553589,15.9096642c4.9946899,9.8858643,4.876709,23.612854-0.34198,39.6965942
		c-5.9165649,18.2336426-17.9981079,38.7562866-35.8891602,61.0183105
		c-6.7723389-4.864624-15.7685547-7.1045532-25.6849365-6.0717163
		c-12.2406616,1.2750854-24.5479736,7.5101929-34.6550903,17.5570068
		c-11.0574341,10.9907837-19.4434204,26.4716797-24.3695068,44.901001
		c-0.3912964-0.1173096-0.7869873-0.2246094-1.1918945-0.3095093
		C204.6265869,227.8060303,201.8540649,228.0038452,199.1586914,228.9354858z M377.2095947,174.8040161
		c-18.1088257-17.2185669-42.3416138-22.350647-68.3123169-14.5078125
		c-3.5775757,5.0586548-7.475647,10.2094116-11.6768799,15.4342041c2.1813965,2.24646,4.0102539,4.8441162,5.4068604,7.7670898
		c4.2664795,8.9285889,9.9776001,33.734314-27.892334,72.4511719c6.0900879,13.9237671,5.7301636,26.2751465-1.0615234,34.9279785
		c-6.8278809,8.6990967-19.1854858,12.4602051-32.2506104,9.8154907c-1.0195923-0.2063599-2.0264893-0.4475708-3.0145264-0.7219849
		c-13.3511963-3.7080688-23.742981-13.5350342-28.6811523-27.0662842
		c-3.6972656,2.6791382-8.0006714,3.8010864-12.3648682,2.8825073c-0.3065796-0.0647583-0.6105347-0.1389771-0.9113159-0.2225342
		c-1.937439-0.5380859-3.7407227-1.4714966-5.359436-2.7501221c-2.9784546,6.4105225-6.694458,12.3574829-11.0432129,17.619873
		c-7.9282227,9.5934448-17.5828247,16.4558105-27.9217529,19.8458862c-10.1282959,3.3208008-17.90979,3.2702026-23.819397,1.6295166
		c-4.7935715-1.3309937-8.3460617-3.7093506-10.9340134-6.1826172
		c-18.9564819,53.6777344-6.5043335,91.2918091,39.0316696,118.184021
		c4.7843628,2.8251953,10.2875366,5.3834229,16.3422852,7.6605835
		c-15.5935059-12.2807617-24.3462524-27.8510742-24.5393677-44.4406128
		c-0.2183838-19.0305786,10.7681885-36.9703369,30.9359131-50.5155029
		c19.828125-13.31604,46.256897-20.8284912,74.4178467-21.1526489c28.1621704-0.3262329,54.7563477,6.5744629,74.8862305,19.4303589
		c20.4743042,13.076355,31.8709106,30.7581787,32.0894775,49.788208
		c0.1726074,15.0123901-6.7102051,29.3829346-19.3943481,41.3592529c2.4060669-1.3457642,4.6990967-2.7669678,6.8567505-4.2713623
		c19.168396-13.3643188,31.0533447-35.1761475,33.4661255-61.416687c2.7653809-30.076416-7.6378784-61.8678589-26.5036011-80.992981
		c-0.0258789-0.0261841-0.0432129-0.0571289-0.0678101-0.0841064c-0.8723145-0.1907349-1.7466431-0.4052124-2.6217041-0.6481323
		c-18.6444092-5.1769409-37.6635132-22.3846436-44.1060791-58.2799072
		c-0.2557373-1.4271851,0.6931763-2.7918701,2.1207275-3.0477905c1.4251709-0.2560425,2.791748,0.6925049,3.0479736,2.1201782
		c7.1681519,39.9402466,30.5675049,54.9463501,50.0759277,55.6729736
		c17.9849243,0.6694336,33.3362427-9.7000122,37.3313599-25.2167358
		C407.0579224,225.3453979,397.1612549,193.7735596,377.2095947,174.8040161z"/>
	<path class="st2" d="M325.621582,339.3181152c-19.2774658-12.3114014-44.8477173-18.9198608-71.9993286-18.6052246
		c-55.6429443,0.6400757-100.5765991,30.40802-100.1638184,66.3567505
		c0.229126,19.7199097,14.1218872,38.0332031,38.1152344,50.2438965c0.0123291,0.0062256,0.0220947,0.0155029,0.0342407,0.0219727
		c38.8181152,9.5419922,90.2769775,9.8105469,127.9663086-2.1638794
		c22.9250488-12.7405396,35.9351196-31.0881958,35.7122803-50.4301147
		C355.0890503,367.5405884,344.5534668,351.4093628,325.621582,339.3181152z M260.302124,385.0147095
		c3.0880737,0.0813599,5.9838867,1.045166,8.1572876,2.7155151c2.3085327,1.7756348,3.5442505,4.1328125,3.4784546,6.6378174
		c-0.0649414,2.5040894-1.4212646,4.7935181-3.819458,6.4468384c-2.2563477,1.5552979-5.1995239,2.3673096-8.2866821,2.2868042
		c-1.2889404-0.0333862-2.5255127-0.2232666-3.6806641-0.5440674c-4.7125244-1.3088379-8.0592041-4.8030396-7.9553833-8.8081665
		C248.3261108,388.7630615,253.7567749,384.8442993,260.302124,385.0147095z M203.6212769,377.9649658
		c-1.4404907,10.1105957-8.3917236,17.4829102-15.5262451,16.4664917
		c-7.1345825-1.0163574-11.7506104-10.0366821-10.3102417-20.1472778
		c1.4404907-10.1106567,8.3918457-17.4829712,15.5264282-16.4664917
		C200.4457397,358.8341064,205.0617676,367.8543701,203.6212769,377.9649658z M274.3694458,410.9686279
		c-1.5021362,1.6196289-7.0803223,6.9162598-15.7728271,7.0655518c-2.244812,0.038269-4.2926025-0.2676392-6.126709-0.7770386
		c-5.6532593-1.5701294-9.2843628-5.0706787-10.4759521-6.366333c-0.9813843-1.0675049-0.9118042-2.7285767,0.1557007-3.7099609
		c1.0679932-0.9812622,2.727417-0.9121094,3.7099609,0.1556396c0.8554688,0.9311523,5.4907837,5.5703735,12.6473389,5.4473877
		c6.6158447-0.1135864,10.8670044-4.151123,12.0127563-5.3861694c0.9864502-1.0632935,2.6473389-1.1269531,3.7103271-0.1394043
		C275.2929077,408.2440796,275.355835,409.9053345,274.3694458,410.9686279z M322.670166,391.7376099
		c-7.0200195,1.6292114-14.5826416-5.1146851-16.8915405-15.0629883s1.5102539-19.3337402,8.5302124-20.9630127
		c7.0200195-1.6292725,14.5824585,5.114624,16.8913574,15.0628662
		C333.5090942,380.7227783,329.6901245,390.1083374,322.670166,391.7376099z"/>
</g>
</svg>
