<?xml version="1.0" encoding="utf-8"?>
<!-- Generator: Adobe Illustrator 24.0.1, SVG Export Plug-In . SVG Version: 6.00 Build 0)  -->
<svg version="1.1" id="Layer_1" xmlns="http://www.w3.org/2000/svg" xmlns:xlink="http://www.w3.org/1999/xlink" x="0px" y="0px"
	 viewBox="0 0 500 500" style="enable-background:new 0 0 500 500;" xml:space="preserve">
<style type="text/css">
	.st0{fill:#FFFFFF;}
	.st1{fill:#3A3D36;}
	.st2{fill:#EE9AB3;}
</style>
<g>
	<path d="M484.914978,85.8750305c0,9.6170654-7.8179932,17.4349976-17.4349976,17.4349976
		c-1.2998047,0-2.5714722-0.1412964-3.7959595-0.4238892l-11.7834473,119.350769l-30.6500244,15.541687
		c13.3752441,20.8070679,20.4772949,45.1556396,20.4772949,71.2280273c0,39.8432007-16.2857666,72.0945435-47.0960083,93.2784424
		c-9.5792847,6.574585-20.5150146,12.0941772-32.6281128,16.5023804c-0.0080566,0.0040283-0.0194092,0.0048218-0.0282593,0.0081177
		c-6.4403076,2.7791138-13.2962646,4.8325806-20.4726563,6.1050415l-0.0001831-0.0010376
		c-0.0014038,0.0004272-0.0031738,0.0004883-0.0045166,0.0009155c-18.3297729,4.3894043-38.7034912,6.6500244-60.6973267,6.6500244
		c-22.048645,0-41.9592285-1.6671143-59.6568604-4.9537354l-0.0004272,0.0018921
		c-0.0139771-0.0032959-0.0275269-0.0068359-0.0415039-0.0101318
		c-67.991272-12.6472168-103.5078125-49.2941895-103.5078125-107.8236084c0-19.59198,3.8995972-38.1948853,11.0487671-55.1871338
		c-1.196228,0.0187988-2.5997314,0.0282593-4.2480469,0.0282593c-3.164856,0-7.2151489-0.0282593-12.4239502-0.0753174
		c-10.5777588-0.0847778-21.2591553-0.2449341-21.3721924-0.2449341l-2.0910645-0.0377197L40.789978,143.3981628
		c-2.458374,1.3375244-5.2747192,2.1005249-8.2700806,2.1005249c-9.6169434,0-17.4348755-7.8179932-17.4348755-17.4255371
		c0-9.607605,7.8179321-17.4349976,17.4348755-17.4349976c9.607605,0,17.4255371,7.8273926,17.4255371,17.4349976
		c0,2.0533447-0.3578491,4.0313721-1.0172119,5.8587036l125.4920654,27.9844971l5.2088013,38.6563721
		c27.362793-19.5072021,61.9689331-30.9985962,100.0319214-30.9985962c22.5872803,0,44.2232056,3.4851074,63.9093628,10.1256714
		l1.1114502-29.5480347l108.302002-54.6031494c-1.8461914-2.7692871-2.9293213-6.0942383-2.9293213-9.673584
		c0-9.6075439,7.8178711-17.4255371,17.4254761-17.4255371C477.0969849,68.4494934,484.914978,76.2674866,484.914978,85.8750305z"/>
	<path d="M282.7505493,357.9111023c-2.4960938-1.5541382-5.6703491-2.2700195-8.9482422-2.015625
		c-3.2684937,0.2542725-6.3014526,1.4599609-8.5150146,3.3908691c-2.4018555,2.081665-3.6074829,4.7566528-3.3908691,7.5353394
		c0.2260742,2.7692871,1.8273315,5.2182617,4.5211792,6.9042969c2.1664429,1.3469849,4.8414917,2.0722656,7.6389771,2.0722656
		c0.4332886,0,0.8759766-0.0188599,1.3092651-0.0565186c6.9984741-0.5463257,12.3391724-5.4443359,11.9059448-10.9168701
		C287.0551147,362.0461731,285.444458,359.5971985,282.7505493,357.9111023z M275.0361938,371.5596008
		c-2.3830566,0.1883545-4.6530762-0.3014526-6.3956299-1.394104c-1.5353394-0.9606934-2.4489746-2.2605591-2.5620117-3.6734619
		c-0.1035767-1.4128418,0.5839844-2.8446045,1.9592285-4.0408325c1.5446777-1.3375244,3.7111206-2.1853027,6.0941772-2.3735962
		c0.3296509-0.0283203,0.6593628-0.0377197,0.9890137-0.0377197c2.015686,0,3.9089966,0.4992065,5.4066162,1.4317017
		c1.5447388,0.9608154,2.4490356,2.2700195,2.5620728,3.6829224
		C283.3345337,368.2628479,279.6421509,371.2016296,275.0361938,371.5596008z M227.0148315,349.3354187
		c0.8738403,0.9658203,1.0628662,2.3695068,0.4750977,3.5321655c-0.586853,1.1618042-1.8217773,1.8341675-3.1256104,1.7109375
		c-25.1062622-2.5507202-36.2919922,6.9273682-36.4024048,7.0230103c-0.5983276,0.5215454-1.3397217,0.7781982-2.0779419,0.7781982
		c-0.8706055,0-1.7362061-0.3578491-2.3561401-1.0587769c-1.1456909-1.295105-1.0390015-3.2654419,0.2483521-4.4197998
		c0.4603882-0.4130249,10.2948608-8.9777222,31.8606567-9.0559082
		c-6.6873169-4.8282471-18.0317383-10.9277344-32.3265991-10.6895142c-1.7283325,0.0542603-3.1697388-1.3567505-3.1982422-3.0952759
		c-0.0289917-1.7375488,1.3567505-3.1697388,3.0942993-3.1983032c0.3128052-0.0045776,0.6245728-0.0073242,0.9345703-0.0073242
		C209.9894409,330.8548279,226.3244629,348.5728455,227.0148315,349.3354187z M386.9379272,316.4780579
		c0.7192993,0.5423584,0.8932495,1.4289551,0.4697266,2.1032104l-0.1852417,0.2905273
		c-2.0742188,3.2910156-4.6990967,6.3900146-7.6418457,9.2767334c0.6420898,2.296814,1.1143799,4.7002563,1.3952637,7.1864014
		c1.9475708,17.2290039-6.1425781,31.7269897-18.0612183,32.3832397
		c-8.1937256,0.4485474-16.0670166-5.7619629-20.8105469-15.2924194c-1.4782104-2.9541016-2.6445923-6.2252808-3.4379883-9.7129517
		c-0.2564087-1.1400757-0.4679565-2.3100586-0.6442871-3.4970093c-0.0680542-0.4944458-0.1351929-0.9959717-0.1932373-1.503418
		c-0.3543091-3.1313477-0.3753052-6.1697998-0.1043701-9.0494385c6.7713013-1.9810791,13.3839111-4.2611694,19.68396-6.9884644
		c4.3779907-1.9025269,8.6033325-4.0246582,12.5288086-6.4353027c0.7944336-0.4909058,1.5735474-0.9909058,2.3383789-1.5070801
		c3.0206299-2.0195923,5.8201904-4.2389526,8.2318115-6.7009277c0.6803589-0.6913452,1.8960571-0.7496338,2.720459-0.1295166
		c0.7112427,0.5413208,0.8851929,1.4279175,0.4616699,2.1021729l-0.1852417,0.2905273
		c-2.1146851,3.3501587-4.7871704,6.5001221-7.8019409,9.4348145c0.6437378,1.1326294,1.2396851,2.3162842,1.7799072,3.5499268
		c2.4589233-1.7416382,4.7382813-3.6206665,6.7434692-5.6705322
		C384.9059448,315.9172668,386.121582,315.8589783,386.9379272,316.4780579z M467.4799805,68.4494934
		c-9.607605,0-17.4254761,7.8179932-17.4254761,17.4255371c0,3.5793457,1.0831299,6.9042969,2.9293213,9.673584
		l-108.302002,54.6031494l-1.1114502,29.5480347c-19.6861572-6.640564-41.3220825-10.1256714-63.9093628-10.1256714
		c-38.0629883,0-72.6691284,11.491394-100.0319214,30.9985962l-5.2088013-38.6563721L48.9282227,133.9318542
		c0.6593628-1.8273315,1.0172119-3.8053589,1.0172119-5.8587036c0-9.607605-7.8179321-17.4349976-17.4255371-17.4349976
		c-9.6169434,0-17.4348755,7.8273926-17.4348755,17.4349976c0,9.6075439,7.8179321,17.4255371,17.4348755,17.4255371
		c2.9953613,0,5.8117065-0.7630005,8.2700806-2.1005249l47.7177124,119.8499146l2.0910645,0.0377197
		c0.1130371,0,10.7944336,0.1601563,21.3721924,0.2449341c5.2088013,0.0470581,9.2590942,0.0753174,12.4239502,0.0753174
		c1.6483154,0,3.0518188-0.0094604,4.2480469-0.0282593c-7.1491699,16.9922485-11.0487671,35.5951538-11.0487671,55.1871338
		c0,58.5294189,35.5165405,95.1763916,103.5078125,107.8236084c0.0139771,0.0032959,0.0275269,0.0068359,0.0415039,0.0101318
		l0.0004272-0.0018921c17.6976318,3.2866211,37.6082153,4.9537354,59.6568604,4.9537354
		c21.9938354,0,42.3675537-2.2606201,60.6973267-6.6500244c0.0013428-0.0004272,0.0031128-0.0004883,0.0045166-0.0009155
		l0.0001831,0.0010376c7.1763916-1.2724609,14.0323486-3.3259277,20.4726563-6.1050415
		c0.0088501-0.0032959,0.0202026-0.0040894,0.0282593-0.0081177c12.1130981-4.4082031,23.0488281-9.9277954,32.6281128-16.5023804
		c30.8102417-21.1838989,47.0960083-53.4352417,47.0960083-93.2784424c0-26.0723877-7.1020508-50.4209595-20.4772949-71.2280273
		l30.6500244-15.541687l11.7834473-119.350769c1.2244873,0.2825928,2.4961548,0.4238892,3.7959595,0.4238892
		c9.6170044,0,17.4349976-7.8179321,17.4349976-17.4349976C484.914978,76.2674866,477.0969849,68.4494934,467.4799805,68.4494934z
		 M42.7114868,132.5472717c-0.8947754,2.0439453-2.3924561,3.7676392-4.2668457,4.9450684
		c-1.7142944,1.0925903-3.7489014,1.7142334-5.9247437,1.7142334c-6.1412964,0-11.1428833-4.9921875-11.1428833-11.1334229
		c0-6.1413574,5.0015869-11.1335449,11.1428833-11.1335449c6.1413574,0,11.1335449,4.9921875,11.1335449,11.1335449
		C43.6534424,129.6650085,43.3143311,131.181488,42.7114868,132.5472717z M92.8027954,257.0220032l-46.690918-117.269104
		l122.6568604,27.3439941l5.0769653,37.7992554c-18.0472412,14.1570435-32.5621948,31.9593506-42.3204956,52.2860107
		C125.9584351,257.4082336,106.3476563,257.2292786,92.8027954,257.0220032z M130.9035034,258.4819641
		c-0.0470581,0.1130371-0.1035767,0.2261353-0.1506348,0.3297119l-0.0283203-0.0093994
		C130.7810669,258.6892395,130.8375854,258.5856628,130.9035034,258.4819641z M286.4864502,424.3036194
		c-4.8967896,0.1885986-8.7385254-1.3079834-11.7211304-4.5651855c-5.7193604-6.2420044-6.9703979-17.7890015-6.2884521-26.8803711
		c2.6982422,0.6262207,5.5765381,0.9591675,8.59729,0.9591675c0.6990356,0,1.4068604-0.0174561,2.119751-0.0524292
		c0.6167603-0.0301514,1.2295532-0.0849609,1.8422241-0.1394043c-0.0990601,0.7280273-0.1772461,1.456543-0.2069092,2.1860352
		c-0.1100464,1.7767944-0.0760498,3.5462036,0.0974121,5.2889404c0.1635132,1.7435913,0.4353027,3.46521,0.8334351,5.1526489
		c0.4005127,1.7020264,0.8755493,3.3147583,1.5524902,5.0065918c0.2461548,0.6170044,0.9216919,0.9643555,1.5777588,0.7852173
		c0.7053223-0.192627,1.1209717-0.9204102,0.9283447-1.6257324l-0.0217285-0.0795898
		c-0.3961792-1.4510498-0.694519-3.0786743-0.875061-4.6448364c-0.1893921-1.5813599-0.2567139-3.1713867-0.2260132-4.7446899
		c0.0205078-1.5740967,0.1702271-3.1342163,0.4400635-4.6553345c0.1757202-1.1543579,0.4753418-2.2723389,0.8146362-3.3670654
		c5.3477783-1.0498657,10.3546143-2.9938965,14.5718384-5.5950317c4.1453857,8.4862671,4.2056885,19.7549438-0.074585,27.7680664
		C298.2894287,419.141449,294.1151733,424.0175476,286.4864502,424.3036194z M358.3009644,413.4225769
		c-5.6978149,2.0067749-11.6635742,3.7734375-17.890564,5.2788696c-0.0021362,0.0003662-0.0042114,0.0008545-0.0063477,0.0012817
		l0.000061,0.0002441c-12.8380737,3.0986938-26.7496948,5.1238403-41.5656128,6.0186157
		c-0.0085449,0.0005493-0.0172119,0.0008545-0.0258179,0.0014038c2.347168-1.8890991,4.3621216-4.338562,5.9528809-7.3163452
		c5.1858521-9.7075195,5.0336304-22.9447021-0.2039185-32.9678345c2.2838745-1.9107666,4.1959229-4.0445557,5.5955811-6.3555298
		c0.7005005-1.15625,0.3306885-2.6610718-0.8255005-3.361084c-1.1567383-0.7009277-2.6611328-0.3320923-3.3615723,0.8259888
		c-4.4120483,7.2842407-15.5209961,12.7647095-27.0153809,13.3267212
		c-9.689209,0.4718628-17.8233643-2.6987915-22.3172607-8.7044678c-0.8099365-1.0826416-2.34375-1.3015747-3.4259644-0.4939575
		c-1.0826416,0.8103638-1.3034058,2.34375-0.4935303,3.4263916c2.7260742,3.6432495,6.4879761,6.4255981,10.9675293,8.2449951
		c-1.0057983,10.6550293,0.4493408,24.0338745,7.4703369,31.6974487c0.7339478,0.8012085,1.524231,1.5015869,2.3442383,2.147644
		c-0.0152588-0.0003052-0.0310059-0.0001221-0.0463257-0.0004272c-18.6029053-0.3202515-35.5857544-1.90271-50.8637085-4.7189941
		c-0.0003052-0.000061-0.0005493-0.0001221-0.0008545-0.0001831l0.0002441-0.0008545
		c-40.3421021-9.5203857-63.3708496-31.3244019-64.8453369-61.3959351
		c-1.4658203-29.9050903,19.6547241-61.8706055,47.0808105-71.2557373c1.6203003-0.553772,3.40802-0.5344238,5.0352173,0.0560913
		c15.0997314,5.4832153,50.0004883,25.0344849,60.3376465,30.895752c2.8855591,1.635498,6.437561,1.3723755,9.0521851-0.6705933
		c8.4455566-6.5998535,36.2349854-25.5900269,54.4815063-35.5758667c2.6004028-1.4230347,5.7209473-1.7081909,8.5614014-0.7809448
		c41.1051025,13.4140625,64.3201294,40.333313,62.0996094,72.0090942
		C402.5836182,379.5625916,384.1314697,402.5757141,358.3009644,413.4225769z M435.4358521,309.0066223
		c0,37.1022339-14.0723267,66.1134033-41.8400879,86.2987671c-0.0142212,0.0103149-0.0292358,0.0203247-0.043396,0.0306396
		c10.0483398-12.0539551,16.0908813-26.4777222,17.1185913-41.1411133
		c2.4352417-34.7443237-22.3968506-64.0653076-66.4251709-78.432312c-4.4842529-1.463501-9.4178467-1.0118408-13.5360107,1.2426758
		c-18.5205688,10.1358032-46.7506104,29.4295044-55.335083,36.1370239
		c-0.5997314,0.4682007-1.4133301,0.5289307-2.0723877,0.1554565
		c-10.4448242-5.9229126-45.7332764-25.6866455-61.2942505-31.3372803c-2.9711304-1.078064-6.2457886-1.1120605-9.22052-0.0947266
		c-29.8972778,10.2314453-52.9232788,45.0061646-51.3296509,77.5189819
		c0.5879517,11.9919434,4.8354492,29.8682861,22.215332,44.954895c-0.005249-0.0036621-0.0106201-0.0053711-0.0159302-0.0106201
		c-1.5164795-0.8006592-2.9953003-1.6295166-4.4364624-2.4772949
		c-30.0848999-17.7363892-45.3345947-45.6925659-45.3345947-83.086792c0-80.1292114,68.4210815-142.8987427,155.7747803-142.8987427
		C369.925293,175.8661804,435.4358521,231.8633728,435.4358521,309.0066223z M445.9759521,218.186676l-28.2858887,14.3359985
		c-6.5463257-9.1743164-14.3831177-17.5856323-23.4067383-25.0645142
		c-12.8948975-10.6813354-27.9373169-19.2622681-44.4962769-25.5354614l1.0454712-27.8243408l106.7949829-53.8401489
		L445.9759521,218.186676z M467.4799805,97.0179749c-1.1020508,0-2.1663818-0.1600952-3.164856-0.4615479
		c-2.2700195-0.6687622-4.2386475-2.0533447-5.6326904-3.8806763c-1.4693604-1.8838501-2.3359375-4.2386475-2.3359375-6.8007202
		c0-6.1412964,4.9921875-11.1334839,11.1334839-11.1334839s11.1428833,4.9921875,11.1428833,11.1334839
		C478.6228638,92.0163879,473.6212769,97.0179749,467.4799805,97.0179749z"/>
	<path class="st0" d="M342.2929077,281.7452698c-2.8404541-0.9272461-5.9609985-0.6420898-8.5614014,0.7809448
		c-18.246521,9.9858398-46.0359497,28.9760132-54.4815063,35.5758667c-2.614624,2.0429688-6.166626,2.3060913-9.0521851,0.6705933
		c-10.3371582-5.8612671-45.237915-25.4125366-60.3376465-30.895752c-1.6271973-0.5905151-3.414917-0.6098633-5.0352173-0.0560913
		c-27.4260864,9.3851318-48.5466309,41.350647-47.0808105,71.2557373
		c1.4744873,30.0715332,24.5032349,51.8755493,64.8453369,61.3959351l-0.0002441,0.0008545
		c0.0003052,0.000061,0.0005493,0.0001221,0.0008545,0.0001831c15.2779541,2.8162842,32.2608032,4.3987427,50.8637085,4.7189941
		c0.0153198,0.0003052,0.0310669,0.0001221,0.0463257,0.0004272c-0.8200073-0.6460571-1.6102905-1.3464355-2.3442383-2.147644
		c-7.0209961-7.6635742-8.4761353-21.0424194-7.4703369-31.6974487c-4.4795532-1.819397-8.2414551-4.6017456-10.9675293-8.2449951
		c-0.8098755-1.0826416-0.5891113-2.6160278,0.4935303-3.4263916c1.0822144-0.8076172,2.6160278-0.5886841,3.4259644,0.4939575
		c4.4938965,6.0056763,12.6280518,9.1763306,22.3172607,8.7044678c11.4943848-0.5620117,22.6033325-6.0424805,27.0153809-13.3267212
		c0.7004395-1.1580811,2.204834-1.5269165,3.3615723-0.8259888c1.156189,0.7000122,1.526001,2.204834,0.8255005,3.361084
		c-1.3996582,2.3109741-3.3117065,4.4447632-5.5955811,6.3555298c5.2375488,10.0231323,5.3897705,23.2603149,0.2039185,32.9678345
		c-1.5907593,2.9777832-3.6057129,5.4272461-5.9528809,7.3163452c0.008606-0.0005493,0.0172729-0.0008545,0.0258179-0.0014038
		c14.815918-0.8947754,28.7275391-2.9199219,41.5656128-6.0186157l-0.000061-0.0002441
		c0.0021362-0.0004272,0.0042114-0.0009155,0.0063477-0.0012817c6.2269897-1.5054321,12.192749-3.2720947,17.890564-5.2788696
		c25.8305054-10.8468628,44.2826538-33.8599854,46.0915527-59.6682129
		C406.6130371,322.0785828,383.3980103,295.1593323,342.2929077,281.7452698z M227.4899292,352.8675842
		c-0.586853,1.1618042-1.8217773,1.8341675-3.1256104,1.7109375c-25.1062622-2.5507202-36.2919922,6.9273682-36.4024048,7.0230103
		c-0.5983276,0.5215454-1.3397217,0.7781982-2.0779419,0.7781982c-0.8706055,0-1.7362061-0.3578491-2.3561401-1.0587769
		c-1.1456909-1.295105-1.0390015-3.2654419,0.2483521-4.4197998c0.4603882-0.4130249,10.2948608-8.9777222,31.8606567-9.0559082
		c-6.6873169-4.8282471-18.0317383-10.9277344-32.3265991-10.6895142c-1.7283325,0.0542603-3.1697388-1.3567505-3.1982422-3.0952759
		c-0.0289917-1.7375488,1.3567505-3.1697388,3.0942993-3.1983032c0.3128052-0.0045776,0.6245728-0.0073242,0.9345703-0.0073242
		c25.8485718,0,42.1835938,17.7180176,42.8739624,18.4805908
		C227.8886719,350.301239,228.0776978,351.7049255,227.4899292,352.8675842z M275.3658447,375.7417297
		c-0.4332886,0.0376587-0.8759766,0.0565186-1.3092651,0.0565186c-2.7974854,0-5.4725342-0.7252808-7.6389771-2.0722656
		c-2.6938477-1.6860352-4.295105-4.1350098-4.5211792-6.9042969c-0.2166138-2.7786865,0.9890137-5.4536743,3.3908691-7.5353394
		c2.213562-1.9309082,5.246521-3.1365967,8.5150146-3.3908691c3.2778931-0.2543945,6.4521484,0.4614868,8.9482422,2.015625
		c2.6939087,1.6860962,4.3045654,4.1350708,4.5212402,6.9137573
		C287.7050171,370.2973938,282.3643188,375.1954041,275.3658447,375.7417297z M387.4076538,318.5812683l-0.1852417,0.2905273
		c-2.0742188,3.2910156-4.6990967,6.3900146-7.6418457,9.2767334c0.6420898,2.296814,1.1143799,4.7002563,1.3952637,7.1864014
		c1.9475708,17.2290039-6.1425781,31.7269897-18.0612183,32.3832397
		c-8.1937256,0.4485474-16.0670166-5.7619629-20.8105469-15.2924194c-1.4782104-2.9541016-2.6445923-6.2252808-3.4379883-9.7129517
		c-0.2564087-1.1400757-0.4679565-2.3100586-0.6442871-3.4970093c-0.0680542-0.4944458-0.1351929-0.9959717-0.1932373-1.503418
		c-0.3543091-3.1313477-0.3753052-6.1697998-0.1043701-9.0494385c6.7713013-1.9810791,13.3839111-4.2611694,19.68396-6.9884644
		c4.3779907-1.9025269,8.6033325-4.0246582,12.5288086-6.4353027c0.7944336-0.4909058,1.5735474-0.9909058,2.3383789-1.5070801
		c3.0206299-2.0195923,5.8201904-4.2389526,8.2318115-6.7009277c0.6803589-0.6913452,1.8960571-0.7496338,2.720459-0.1295166
		c0.7112427,0.5413208,0.8851929,1.4279175,0.4616699,2.1021729l-0.1852417,0.2905273
		c-2.1146851,3.3501587-4.7871704,6.5001221-7.8019409,9.4348145c0.6437378,1.1326294,1.2396851,2.3162842,1.7799072,3.5499268
		c2.4589233-1.7416382,4.7382813-3.6206665,6.7434692-5.6705322c0.680481-0.6912842,1.8961182-0.7495728,2.7124634-0.1304932
		C387.6572266,317.0204163,387.8311768,317.9070129,387.4076538,318.5812683z"/>
	<path class="st1" d="M130.7528687,258.8116455l-0.0283203-0.0093994c0.0565186-0.1130371,0.1130371-0.2166138,0.1789551-0.3203125
		C130.8564453,258.5949707,130.7999268,258.7080688,130.7528687,258.8116455z M32.5198975,116.9395752
		c-6.1412964,0-11.1428833,4.9921875-11.1428833,11.1335449c0,6.1412354,5.0015869,11.1334229,11.1428833,11.1334229
		c2.1758423,0,4.2104492-0.6216431,5.9247437-1.7142334c1.8743896-1.1774292,3.3720703-2.901123,4.2668457-4.9450684
		c0.6028442-1.3657837,0.9419556-2.8822632,0.9419556-4.4741211
		C43.6534424,121.9317627,38.6612549,116.9395752,32.5198975,116.9395752z M173.8457031,204.8961182l-5.0769653-37.7992554
		L46.1118774,139.7528687l46.690918,117.269104c13.5448608,0.2072754,33.1556396,0.3862305,38.7224121,0.1601563
		C141.2835083,236.8554688,155.7984619,219.0531616,173.8457031,204.8961182z M349.7870483,181.9226685
		c16.55896,6.2731934,31.6013794,14.854126,44.4962769,25.5354614c9.0236206,7.4788818,16.8604126,15.8901978,23.4067383,25.0645142
		l28.2858887-14.3359985l11.6515503-117.9284668l-106.7949829,53.8401489L349.7870483,181.9226685z M467.4799805,74.7415161
		c-6.1412964,0-11.1334839,4.9921875-11.1334839,11.1334839c0,2.5620728,0.8665771,4.9168701,2.3359375,6.8007202
		c1.394043,1.8273315,3.3626709,3.2119141,5.6326904,3.8806763c0.9984741,0.3014526,2.0628052,0.4615479,3.164856,0.4615479
		c6.1412964,0,11.1428833-5.0015869,11.1428833-11.1429443C478.6228638,79.7337036,473.6212769,74.7415161,467.4799805,74.7415161z
		 M279.6610107,175.8661499c-87.3536987,0-155.7747803,62.7695313-155.7747803,142.8987427
		c0,37.3942261,15.2496948,65.3504028,45.3345947,83.086792c1.4411621,0.8477783,2.9199829,1.6766357,4.4364624,2.4772949
		c0.0053101,0.005249,0.0106812,0.006958,0.0159302,0.0106201c-17.3798828-15.0866089-21.6273804-32.9629517-22.215332-44.954895
		c-1.5936279-32.5128174,21.432373-67.2875366,51.3296509-77.5189819c2.9747314-1.017334,6.2493896-0.9833374,9.22052,0.0947266
		c15.5609741,5.6506348,50.8494263,25.4143677,61.2942505,31.3372803c0.6590576,0.3734741,1.4726563,0.3127441,2.0723877-0.1554565
		c8.5844727-6.7075195,36.8145142-26.0012207,55.335083-36.1370239c4.1181641-2.2545166,9.0517578-2.7061768,13.5360107-1.2426758
		c44.0283203,14.3670044,68.8604126,43.6879883,66.4251709,78.432312
		c-1.02771,14.6633911-7.0702515,29.0871582-17.1185913,41.1411133c0.0141602-0.0103149,0.0291748-0.0203247,0.043396-0.0306396
		c27.7677612-20.1853638,41.8400879-49.1965332,41.8400879-86.2987671
		C435.4358521,231.8633423,369.925293,175.8661499,279.6610107,175.8661499z"/>
	<path class="st2" d="M268.640564,370.1654968c-1.5353394-0.9606934-2.4489746-2.2605591-2.5620117-3.6734619
		c-0.1035767-1.4128418,0.5839844-2.8446045,1.9592285-4.0408325c1.5446777-1.3375244,3.7111206-2.1853027,6.0941772-2.3735962
		c0.3296509-0.0283203,0.6593628-0.0377197,0.9890137-0.0377197c2.015686,0,3.9089966,0.4992065,5.4066162,1.4317017
		c1.5447388,0.9608154,2.4490356,2.2700195,2.5620728,3.6829224c0.244873,3.1083374-3.4475098,6.0471191-8.0534668,6.4050903
		C272.6531372,371.7479553,270.3831177,371.2581482,268.640564,370.1654968z M285.9505615,392.9275818
		c-0.3392944,1.0947266-0.638916,2.2127075-0.8146362,3.3670654c-0.2698364,1.5211182-0.4195557,3.0812378-0.4400635,4.6553345
		c-0.0307007,1.5733032,0.0366211,3.1633301,0.2260132,4.7446899c0.180542,1.5661621,0.4788818,3.1937866,0.875061,4.6448364
		l0.0217285,0.0795898c0.192627,0.7053223-0.2230225,1.4331055-0.9283447,1.6257324
		c-0.6560669,0.1791382-1.331604-0.1682129-1.5777588-0.7852173c-0.6769409-1.6918335-1.1519775-3.3045654-1.5524902-5.0065918
		c-0.3981323-1.687439-0.6699219-3.4090576-0.8334351-5.1526489c-0.1734619-1.7427368-0.2074585-3.512146-0.0974121-5.2889404
		c0.0296631-0.7294922,0.1078491-1.4580078,0.2069092-2.1860352c-0.6126709,0.0544434-1.2254639,0.1092529-1.8422241,0.1394043
		c-0.7128906,0.0349731-1.4207153,0.0524292-2.119751,0.0524292c-3.020752,0-5.8990479-0.3329468-8.59729-0.9591675
		c-0.6819458,9.0913696,0.5690918,20.6383667,6.2884521,26.8803711c2.982605,3.2572021,6.8243408,4.7537842,11.7211304,4.5651855
		c7.6287231-0.2860718,11.8029785-5.1621704,13.9613647-9.2030029c4.2802734-8.0131226,4.2199707-19.2817993,0.074585-27.7680664
		C296.3051758,389.9336853,291.2983398,391.8777161,285.9505615,392.9275818z M265.9277954,275.2481995v12.1602173h-10.5588989
		v-8.854126c-16.5871582-3.1742554-28.5401611-13.1115112-28.5401611-33.4663696
		c0-19.1304321,18.7253418-34.6344604,41.8306885-34.6344604c23.1146851,0,41.8400879,15.5040283,41.8400879,34.6344604
		c0,18.3862915-8.3736572,27.673584-20.8258667,31.8086548l0.0565186,10.5118408h-11.1900024v-12.3391724
		c0-0.5839844-0.4615479-1.0549316-1.0455322-1.0549316h-1.5918579c-0.5839844,0-1.0455322,0.4709473-1.0455322,1.0549316
		v12.3391724h-5.3029785v-12.1602173c0-0.5840454-0.4710083-1.0549927-1.0455322-1.0549927h-1.5353394
		C266.3987427,274.1932068,265.9277954,274.6641541,265.9277954,275.2481995z M285.2654419,257.483551
		c1.7990723,5.5667725,6.2731934,8.6751099,10.6437378,7.262207c4.3704834-1.4128418,6.4615479-7.0737915,4.6624756-12.640564
		s-6.8100586-8.9387817-11.180603-7.5258789C285.0205688,245.992157,283.4663696,251.9168396,285.2654419,257.483551z
		 M249.5007324,244.5793152c-4.3704834-1.4129028-9.3815308,1.9591064-11.180603,7.5258789
		s0.2919922,11.2277222,4.6625366,12.640564c4.3704834,1.4129028,8.8446045-1.6954346,10.6436768-7.262207
		C255.425415,251.9168396,253.8712158,245.992157,249.5007324,244.5793152z"/>
</g>
</svg>
